<?xml version="1.0" encoding="utf-8"?>
<!-- Generator: Adobe Illustrator 16.0.0, SVG Export Plug-In . SVG Version: 6.00 Build 0)  -->
<!DOCTYPE svg PUBLIC "-//W3C//DTD SVG 1.1//EN" "http://www.w3.org/Graphics/SVG/1.1/DTD/svg11.dtd">
<svg version="1.1" id="Layer_1" xmlns="http://www.w3.org/2000/svg" xmlns:xlink="http://www.w3.org/1999/xlink" x="0px" y="0px"
	 width="461.5px" height="581px" viewBox="0 1 461.5 581" enable-background="new 0 1 461.5 581" xml:space="preserve">
<g>
	<g>
		<path fill="#F98080" d="M368.469,202.548c-5.669-3.938-10.969-8.13-16.888-11.522c-22.207-12.73-46.188-17.019-71.335-14.879
			c-14.767,1.257-28.847,5.86-41.915,12.869c-15.289,8.199-27.834,19.588-38.307,33.539c-6.418,8.549-11.672,17.729-15.075,27.587
			c-3.35,9.702-6.459,19.625-7.063,30.226c-0.594,10.422-0.506,20.76,1.339,30.917c2.128,11.71,5.736,23.104,11.45,33.665
			c6.27,11.589,13.965,22.181,23.845,30.931c17.798,15.763,38.03,26.541,62.073,29.17c19.426,2.124,38.903,0.614,58.353,0.95
			c16.66,0.288,33.33,0.141,49.995,0.048c3.4-0.02,5.355,1.041,6.766,4.361c7.688,18.085,15.613,36.066,23.5,54.066
			c0.588,1.344,1.885,2.354,1.938,3.989c-25.365,6.438-50.768,12.823-76.127,19.372c-5.365,1.386-9.203-2.026-13.46-3.774
			c-25.232-10.357-50.322-21.063-75.511-31.529c-11.726-4.873-23.399-9.904-35.05-14.911c-8.762-3.767-17.603-7.48-26.428-11.085
			c-5.974-2.439-8.745-6.952-11.796-11.77c-8.517-13.443-17.171-26.803-25.631-40.281c-7.402-11.794-14.189-24.002-22.095-35.441
			c-3.846-5.562-3.736-9.825-1.273-15.799c7.807-18.935,14.344-38.402,22.415-57.217c5.078-11.836,9.465-23.915,14.334-35.814
			c8.517-20.812,17.052-41.627,24.947-62.679c2.944-7.852,6.905-15.308,8.768-23.646c1.813-8.115,8.349-10.17,15.98-11.049
			c11.312-1.302,22.519-3.518,33.77-5.347c15.302-2.487,30.605-4.971,45.905-7.468c12.996-2.122,25.99-4.259,38.984-6.395
			c3.09-0.508,6.166-1.101,9.264-1.54c3.029-0.429,5.053,0.373,6.74,3.502c9.717,18.025,19.723,35.896,29.729,53.765
			c1.18,2.107,1.289,3.934,0.338,6.067C376.919,184.47,373.455,193.774,368.469,202.548z"/>
		<path fill="#F98080" d="M145.577,536.157c-1.684,0.163-2.753-0.938-4.045-1.7c-14.251-8.41-27.169-18.542-39.618-29.426
			c-9.924-8.676-19.219-17.874-27.847-27.812c-2.516-2.896-2.767-5.544-1.368-9.036c6.893-17.21,13.603-34.491,20.342-51.764
			c1.74-4.46,3.476-8.929,4.98-13.471c1.148-3.466,3.162-3.859,6.056-2.294c11.041,5.971,22.888,10.098,34.367,15.066
			c12.112,5.243,24.207,10.535,36.195,16.055c4.827,2.222,6.415,7.545,8.978,11.613c14.386,22.846,28.276,46,42.441,68.985
			c1.6,2.596,0.756,3.506-1.704,4.117c-9.935,2.465-19.871,4.927-29.798,7.422c-15.522,3.899-31.037,7.828-46.556,11.737
			C147.199,535.854,146.384,535.99,145.577,536.157z"/>
		<path fill="#F98080" d="M451.49,575.993c-50.771,0-101.543-0.02-152.314,0.034c-4.292,0.005-8.486,0.165-12.842-0.199
			c-3.779-0.314-6.796-0.134-9.037-3.785c-9.408-15.326-19.03-30.523-28.811-45.616c-2.257-3.481-0.144-3.864,2.217-4.438
			c12.328-3,24.693-5.854,36.997-8.949c10.216-2.571,20.642-4.214,30.703-7.518c5.284-1.734,10.882-2.849,16.42-3.371
			c4.813-0.455,8.771,2.886,13.047,4.743c10.949,4.756,22.097,9.079,32.89,14.161c8.913,4.196,17.911,8.619,26.939,12.081
			c10.025,3.845,19.223,9.601,29.767,12.419c5.282,1.412,11.09,3.821,15.354,7.414c3.89,3.277,6.765,8.311,6.354,14.021
			c-0.136,1.89-0.015,0.578-0.015,2.696c0,1.094,0,1.125,0.062,2.812c0.044,1.174-0.062-1.312,0,1.188
			C459.289,576.482,454.286,575.993,451.49,575.993C451.493,576.371,451.488,575.615,451.49,575.993z"/>
		<path fill="#F98080" d="M283.809,4.639c3.418-1.008,6.265,1.83,8.768,6.438c11.812,21.743,23.887,43.343,35.858,65
			c3.601,6.515,6.767,13.318,10.904,19.471c2.568,3.816,0.699,4.626-2.153,5.162c-8.253,1.554-16.558,2.828-24.835,4.26
			c-16.083,2.78-32.153,5.643-48.245,8.378c-13.5,2.295-27.025,4.436-40.531,6.696c-2.919,0.488-5.797,1.22-8.703,1.8
			c-1.469,0.293-3.2,0.747-4.318-0.299c-1.392-1.304,0.06-2.767,0.575-4.068c10.416-26.303,20.858-52.596,31.299-78.889
			c3.833-9.653,7.738-19.277,11.443-28.979c0.637-1.668,1.427-2.463,3.11-2.608C265.215,6.289,273.446,5.554,283.809,4.639z"/>
		<path fill="#F98080" d="M186.183,138.091c3.302-0.116,4.149,0.554,3.075,3.217c-6.434,15.946-12.713,31.954-19.052,47.938
			c-5.913,14.909-11.915,29.783-17.733,44.729c-6.231,16.007-11.951,32.223-18.554,48.072c-4.264,10.234-7.861,20.703-12.04,30.952
			c-1.959,4.807-3.35,5.017-5.909,0.504c-5.879-10.365-13.508-19.647-18.682-30.405c-0.829-1.724-2.042-3.074-3.151-4.287
			c-5.359-5.859-3.199-12.256-1.785-18.578c5.872-26.264,11.716-52.535,17.828-78.744c2.14-9.176,4.114-18.373,5.922-27.614
			c0.566-2.893,2.497-4.387,5.468-4.889c18.727-3.16,37.437-6.423,56.159-9.614C180.814,138.846,184.045,139.303,186.183,138.091z"
			/>
		<path fill="#FCE547" d="M4.939,290.233c1.975-27.021,4.101-52.034,11.654-76.33c1.906-6.129,3.268-12.479,5.729-18.449
			c0.609-1.477,0.964-3.718,3.422-3.724c2.301-0.006,2.761,1.844,3.726,3.409c8.585,13.931,17.551,27.634,25.836,41.738
			c6.695,11.397,13.595,22.665,20.374,34.009c2.825,4.728,1.02,9.835-0.1,14.55c-3.204,13.491-6.116,27.036-8.993,40.6
			c-2.6,12.26-6.07,24.33-8.127,36.725c-0.871,5.248-3.404,6.798-7.847,4.388c-10.625-5.766-21.933-9.902-33.114-14.292
			c-4.606-1.81-6.678-4.915-7.211-9.144c-1.845-14.619-4.089-29.207-4.248-43.998C6,295.917,4.553,292.202,4.939,290.233z"/>
		<path fill="#F98080" d="M120.135,136.52c5.209-22.744,10.376-45.267,15.517-67.795c0.548-2.403,0.967-4.838,1.404-7.266
			c2.13-11.828,3.437-13.354,14.044-19.049c11.315-6.076,22.685-12.128,34.638-16.738c15.811-6.099,32.001-11.213,48.704-14.427
			c1.587-0.306,3.302-0.395,4.979,0.378c-4.573,13.629-10.259,26.802-15.456,40.164c-7.242,18.62-14.313,37.306-21.453,55.966
			c-1.821,4.757-4.378,9.202-5.762,14.156c-0.867,3.103-3.91,3.438-6.418,3.878c-17.588,3.089-35.144,6.487-52.842,8.745
			C131.888,135.248,126.368,138.11,120.135,136.52z"/>
		<path fill="#F98080" d="M356.688,97.561c-1.6,0.635-2.531-2.218-3.353-3.655c-15.533-27.186-30.897-54.469-46.241-81.764
			c-1.115-1.984-3.09-4.872-2.414-6.18c1.274-2.471,4.097,0.006,6.248,0.132c25.141,1.474,49.559,6.34,73.348,14.856
			c17.849,6.389,35.047,13.891,51.234,23.789c2.035,1.245,2.006,1.756,1.247,3.501c-4.979,11.46-10.116,22.86-14.703,34.478
			c-2.216,5.609-7.173,4.141-10.93,4.966c-12.06,2.65-24.246,4.762-36.44,6.726C369.158,95.299,363.597,95.998,356.688,97.561z"/>
		<path fill="#FCE547" d="M81.111,256.067c-6.155-6.631-10.878-13.68-14.839-21.271c-2.221-4.258-5.159-8.021-7.921-11.931
			c-3.49-4.939-6.046-10.528-9.225-15.702c-4.773-7.769-9.789-15.388-14.596-23.137c-2.176-3.507-5.541-6.582-2.958-11.61
			c3.006-5.853,5.298-11.038,13.69-11.508c11.31-0.633,22.466-3.635,33.763-5.002c6.876-0.832,13.533-2.896,20.563-2.965
			c4.199-0.041,4.968,1.763,4.252,5.037c-1.765,8.066-3.767,16.08-5.569,24.14c-2.601,11.633-5.057,23.313-7.744,34.91
			c-2.003,8.644-3.008,17.532-5.866,25.991C83.288,247.082,83.615,251.603,81.111,256.067z"/>
		<path fill="#F98080" d="M316.162,492.996c-14.171,3.066-27.66,8.102-41.685,11.021c-9.818,2.043-19.544,4.592-29.207,7.287
			c-3.586,1.001-5.625,0.711-7.734-2.753c-10.639-17.471-21.559-34.77-32.414-52.107c-2.974-4.751-6.062-9.432-8.481-15.25
			C236.481,458.461,276.322,475.729,316.162,492.996z"/>
		<path fill="#FCE547" d="M54.372,148.872c-2.146,0.131-4.353-0.399-6.414,0.517c-1.113,0.494-2.324,0.914-3.208-0.125
			c-0.896-1.054-0.191-2.338,0.373-3.256c4.222-6.857,8.27-13.848,12.914-20.413c4.162-5.884,8.932-11.35,13.578-16.878
			c12.112-14.411,24.819-28.227,39.988-39.563c3.18-2.376,6.092-5.107,9.216-7.563c0.85-0.668,1.982-1.479,3.166-0.555
			c1.054,0.821,0.242,1.785,0.039,2.711c-3.107,14.18-6.234,28.355-9.279,42.549c-1.978,9.216-4.146,18.409-5.612,27.709
			c-0.772,4.898-3.598,6.122-7.677,6.808c-9.538,1.602-19.019,3.562-28.579,5.004C66.692,146.748,60.721,149.008,54.372,148.872z"/>
		<path fill="#F98080" d="M158.825,543.934c8.196-1.977,15.391-3.724,22.59-5.446c12.496-2.99,24.994-5.974,37.495-8.941
			c1.122-0.266,2.411-0.142,3.389-0.647c9.688-5.022,14.696-0.4,19.332,8.003c7.016,12.719,15.112,24.842,22.784,37.275
			C249.498,577.642,186.332,560.872,158.825,543.934z"/>
		<path fill="#F98080" d="M86.342,288.971c10.05,14.15,18.297,28.266,26.728,42.265c0.712,1.183,0.955,2.285,0.367,3.736
			c-6.125,15.11-12.337,30.19-18.101,45.44c-1.576,4.169-3.575,4.262-6.669,2.44c-4.422-2.604-9.092-4.576-13.961-6.169
			c-6.53-2.135-7.277-3.333-5.771-10.047c3.542-15.788,7.502-31.485,10.745-47.334C81.7,309.438,83.773,299.6,86.342,288.971z"/>
		<path fill="#F98080" d="M358.588,496.281c7.564-1.896,14.087-3.596,20.642-5.16c12.945-3.092,26.075-5.436,38.785-9.467
			c2.858-0.907,4.444-0.492,5.868,2.451c4.676,9.658,8.479,19.709,13.488,29.229c2.744,5.215,3.703,11.284,7.146,16.259
			c0.562,0.812,0.614,2.006-0.212,2.761c-0.799,0.729-1.766,0.51-2.753,0.045c-18.34-8.615-37.295-15.782-55.915-23.741
			c-7.843-3.354-15.758-6.536-23.614-9.856C361.16,498.436,360.464,497.677,358.588,496.281z"/>
		<path fill="#F98080" d="M164.291,414.955c-9.095-3.663-18.249-7.189-27.271-11.023c-10.17-4.321-20.156-9.085-30.373-13.289
			c-2.679-1.103-2.631-2.085-1.752-4.277c4.621-11.531,9.148-23.102,13.681-34.667c0.897-2.289,1.674-4.625,2.971-8.231
			c14.902,24.066,29.264,47.262,43.625,70.455C164.878,414.266,164.584,414.61,164.291,414.955z"/>
		<path fill="#F98080" d="M65.6,385.136c5.025,2.1,10.033,3.908,14.788,6.236c9.08,4.445,8.96,4.545,5.223,14.265
			c-6.395,16.629-12.69,33.295-19.084,49.924c-0.526,1.369-1.577,2.526-2.218,3.861c-0.892,1.856-1.846,1.622-2.895,0.233
			c-2.989-3.961-6.057-7.869-8.889-11.94c-1.888-2.713-0.917-5.797-0.207-8.624c4.299-17.117,8.109-34.343,11.665-51.626
			C64.216,386.328,63.963,385.021,65.6,385.136z"/>
		<path fill="#F98080" d="M362.023,109.413c16.197-2.591,31.796-5.074,47.388-7.604c1.103-0.18,2.324-1.172,3.158,0.078
			c0.661,0.991,0.192,2.189-0.318,3.314c-6.304,13.9-12.463,27.867-18.906,41.702c-1.438,3.089-1.538,6.828-4.875,9.881
			C379.668,141.02,370.994,125.48,362.023,109.413z"/>
		<path fill="#FCE547" d="M42.012,428.902c-6.356-7.914-8.931-17.28-13.317-25.674c-4.412-8.442-7.128-17.688-9.876-26.844
			c-0.665-2.217-1.833-4.358-1.63-6.697c0.151-1.747-2.753-3.32-1.078-4.299c1.521-0.888,4.357-0.658,6.102,0.164
			c8.969,4.229,17.734,8.847,27.155,12.126c2.863,0.997,4.631,3.408,3.649,7.488c-3.015,12.524-5.455,25.188-8.112,37.796
			C44.485,424.954,43.523,426.679,42.012,428.902z"/>
	</g>
</g>
</svg>
