<?xml version="1.0" encoding="utf-8"?>
<!-- Generator: Adobe Illustrator 23.0.0, SVG Export Plug-In . SVG Version: 6.00 Build 0)  -->
<svg version="1.1" id="Capa_1" xmlns="http://www.w3.org/2000/svg" xmlns:xlink="http://www.w3.org/1999/xlink" x="0px" y="0px"
	 viewBox="0 0 512 512" style="enable-background:new 0 0 512 512;" xml:space="preserve">
<style type="text/css">
	.st0{fill:#EB585D;}
</style>
<g>
	<g>
		<path class="st0" d="M422.09,355.62l-87.34-171.01c8.05-12.66,1.58-28.21-11.8-32.23c0.63-10.32,1.64-20.2,2.26-25.75
			c0.46-4.12-2.51-7.83-6.62-8.29c-4.11-0.46-7.83,2.51-8.29,6.62c-0.81,7.3-1.84,17.7-2.44,28.34c-1.95,0.87-4.35,2.41-6.11,4.1
			c-6.13,4.06-42.38,9.84-76.7,4.07c-19.89-4-12.82-4.55-20.93-8.17c-0.29-5.07-2.41-33.45-3.65-36.72
			c-6.84-17.96-6.09-39.39-6.13-56.59h18.58c2.26,2.62,5.08,4.43,6.93,5.12c15.99,5.93,19.47,16.97,24.67,22.55
			c3.49,3.75,8.94,5.79,14.58,4.65v0c6.35-1.31,9.05-5.14,12.25-9.85c13.14-19.33,20.1-13.64,27.7-22.47h18.58
			c-0.02,12.11,0.27,19.08-0.65,30.16c-0.36,4.13,2.7,7.76,6.83,8.12c4.12,0.35,7.76-2.7,8.12-6.83c0.55-6.73,0.71-12.6,0.71-12.71
			c0-62.75,0.57-60.14-1.7-65.51c-8.71-20.6-39.2-15.74-41.38,6.24c-0.27,2.75,0.05,22.83-0.17,25.68c-0.17,2.15-0.9,5.01-2.79,6.02
			c-23.01,8.67-28.27,26.62-30.74,26.44c-2.73-1.13-8.2-18.04-30.49-26.44c-1.8-0.97-2.57-3.69-2.76-5.74
			c-0.16-1.65-0.04-1.98-0.08-23.79c0-18.21-21.16-28.17-35.21-16.76c-5.01,4.07-7.98,10.17-7.98,16.76c0,47.91-2,75.43,6.78,99.42
			c0.43,3.45,2.04,17.05,2.92,31.34c-13.74,4.13-19.62,20.36-11.86,32.35l-15.41,30.17c-1.89,3.69-0.42,8.21,3.27,10.09
			c3.68,1.88,8.21,0.42,10.09-3.27l13.74-26.91c29.72,16.6,103.81,16.25,134.25,0.04l85.59,167.59c1.33,2.6,3.96,4.09,6.69,4.09
			C420.94,366.53,424.66,360.65,422.09,355.62z M304.46,21.62c0-3.68,2.97-6.6,6.6-6.6c3.66,0,6.6,2.97,6.6,6.6v23.37h-13.22
			C304.48,43.87,304.45,44.81,304.46,21.62z M194.87,19.05c2.77-6.55,12.68-4.66,12.68,2.57c0.01,23.1-0.02,22.24,0.02,23.37h-13.22
			C194.52,20.75,193.97,21.18,194.87,19.05z M323.23,173.62c-3.18,21.33-111.24,26.19-132.65,3.97c-2.52-2.62-2.45-6.8,0.17-9.33
			c2.43-2.34,6.24-2.44,8.79-0.33c18.42,15.37,99.26,13.44,112.36,0.52C316.73,163.66,324.05,168.07,323.23,173.62z"/>
	</g>
</g>
<g>
	<g>
		<path class="st0" d="M453.21,416.55l-15.2-29.76c-1.89-3.69-6.4-5.15-10.09-3.27c-3.69,1.88-5.15,6.4-3.27,10.09l15.21,29.78
			c2.19,4.26,0.97,9.45-2.9,12.34c-32.7,24.41-66.18,13.75-94.42,21.73l-39.75-202.91c-0.8-4.06-4.73-6.71-8.8-5.92
			c-4.06,0.8-6.71,4.74-5.92,8.8l40.39,206.17c-2.99,1.89-5.87,4.15-8.61,6.89c-34.63,34.62-91.16,35.68-126.88,0.81
			c-3.21-3.14-6.59-5.69-10.08-7.77l40.38-206.11c0.8-4.07-1.85-8.01-5.92-8.8c-4.07-0.79-8.01,1.85-8.8,5.92l-39.77,202.98
			c-28.97-8.26-61.08,2.59-93.75-21.8c-3.88-2.89-5.1-8.08-2.89-12.36l87.06-170.46c1.88-3.69,0.42-8.21-3.27-10.09
			c-3.68-1.88-8.21-0.42-10.09,3.27L58.8,416.53c-5.56,10.8-2.51,23.93,7.27,31.23c46.61,34.79,90.05,8.54,116.43,34.29
			c40.98,40.01,106.85,40.16,147.96-0.93c23.81-23.82,69.62,0.87,115.48-33.36C455.7,440.46,458.76,427.33,453.21,416.55z"/>
	</g>
</g>
</svg>
