<?xml version="1.0" encoding="utf-8"?>
<!-- Generator: Adobe Illustrator 23.0.0, SVG Export Plug-In . SVG Version: 6.00 Build 0)  -->
<svg version="1.1" id="Layer_1" xmlns="http://www.w3.org/2000/svg" xmlns:xlink="http://www.w3.org/1999/xlink" x="0px" y="0px"
	 viewBox="0 0 512 512" style="enable-background:new 0 0 512 512;" xml:space="preserve">
<style type="text/css">
	.st0{fill:#FF575A;}
</style>
<g>
	<g>
		<path class="st0" d="M451.2,435.62c0-0.02,0-0.04,0-0.06c-0.42-8.77-3.71-17.26-9.66-24.21c-3.18-3.71-6.96-6.78-11.25-9.13
			c-4.32-2.35-8.96-3.87-13.8-4.5c-38.79-5.04-73.59-19.48-101.92-35.52c1.46-2.56,1.27-5.87-0.74-8.27
			c-2.58-3.08-7.17-3.49-10.24-0.91l-1.85,1.55c-7.2-4.49-13.88-9.01-19.99-13.4c0.6-2.24,0.13-4.73-1.49-6.63
			c-2.37-2.77-6.35-3.31-9.35-1.45c-6.39-4.94-12.27-9.79-17.59-14.41c1.8-2.64,1.7-6.26-0.48-8.81c-2.6-3.04-7.17-3.41-10.23-0.82
			c-15-13.99-23.39-24.01-23.52-24.17c-0.03-0.04-0.07-0.07-0.1-0.11c-0.01-0.01-0.02-0.03-0.04-0.05l-25.67-29.22
			c-2.64-3.01-7.23-3.31-10.25-0.68l-20.23,17.67c-2.98,2.61-3.33,7.12-0.79,10.15l20.57,24.51l-23.12,20.47
			c-8.1,7.17-18.44,10.67-29.1,9.84c-16.23-1.26-29.88-12.1-34.77-27.62l-4.39-13.94c-0.89-2.83-3.41-4.83-6.36-5.07l-39.78-3.17
			c-0.01,0-0.01,0-0.01,0c-3.32-0.26-6.4,1.78-7.46,4.94l-26.43,78.74c-5.95,17.71-4.3,36.49,4.64,52.91
			c8.71,15.99,23.75,27.84,41.39,32.7l-0.38,4.82c-0.95,11.86,7.92,22.28,19.76,23.23c0.02,0,0.03,0,0.04,0
			c5.72,0.44,11.28-1.37,15.65-5.1c4.37-3.74,7.04-8.96,7.49-14.7l0.36-4.46l16.87,1.35l-0.36,4.46
			c-0.46,5.74,1.34,11.32,5.07,15.71c3.73,4.39,8.95,7.06,14.69,7.52c0.02,0,0.03,0,0.04,0c5.72,0.44,11.28-1.37,15.65-5.1
			c4.38-3.74,7.04-8.96,7.49-14.71l0.36-4.46l109.3,8.72l-0.36,4.46c-0.46,5.74,1.34,11.32,5.07,15.71
			c3.73,4.39,8.95,7.06,14.69,7.52c0.02,0,0.03,0,0.05,0c5.72,0.45,11.28-1.37,15.65-5.1c4.38-3.74,7.04-8.96,7.49-14.7l0.36-4.46
			l12.08,0.96l-0.36,4.47c-0.46,5.74,1.34,11.32,5.07,15.71c3.73,4.39,8.95,7.06,14.69,7.52c0.02,0,0.03,0,0.05,0
			c5.72,0.45,11.28-1.37,15.65-5.1c4.38-3.74,7.04-8.96,7.49-14.7l0.37-4.63c4,0.16,8.01,0.2,12.01,0.1l-0.21,2.6
			c-0.95,11.86,7.92,22.28,19.76,23.23c0.02,0,0.03,0,0.05,0c5.72,0.45,11.28-1.37,15.65-5.1c4.37-3.74,7.04-8.96,7.49-14.7
			l0.94-11.73c0.01-0.1,0-0.2,0.01-0.29c12.39-3.76,22.08-13.15,26.25-25.64C450.76,445.5,451.42,440.52,451.2,435.62z
			 M177.74,278.77l9.39-8.21l16.1,18.33l-9.76,8.64L177.74,278.77z M85.25,464.04c-0.15,1.88-1.02,3.59-2.45,4.81
			c-1.42,1.21-3.22,1.8-5.07,1.65c-0.01,0-0.01,0-0.01,0c-3.85-0.31-6.72-3.7-6.41-7.57l0.36-4.46l13.95,1.11L85.25,464.04z
			 M94.34,445.69c-0.11-0.01-0.22-0.03-0.33-0.04c-0.11-0.01-0.21-0.01-0.32-0.01l-27.8-2.22c-0.11-0.01-0.22-0.03-0.33-0.04
			c-0.01,0-0.01,0-0.02,0c-0.11-0.01-0.21-0.01-0.32-0.01l-3.78-0.3c-14.22-3.78-25.88-12.91-32.87-25.76
			c-6.98-12.82-8.27-27.49-3.63-41.32l4.94-14.72l1.63,0.75c35.21,16.14,61.49,47.26,71.81,84.4L94.34,445.69z M145.07,468.81
			c-0.15,1.88-1.02,3.59-2.45,4.81c-1.42,1.21-3.22,1.8-5.07,1.65c-0.01,0-0.01,0-0.01,0c-1.86-0.15-3.55-1.02-4.76-2.44
			c-1.22-1.43-1.8-3.25-1.65-5.13l0.36-4.46l13.95,1.11L145.07,468.81z M297.31,480.96c-0.15,1.88-1.02,3.58-2.45,4.81
			c-1.42,1.21-3.22,1.8-5.07,1.65c-0.01,0-0.01,0-0.02,0c-1.86-0.15-3.55-1.02-4.76-2.44c-1.22-1.43-1.8-3.25-1.65-5.13l0.36-4.46
			l13.95,1.11L297.31,480.96z M352.33,485.36c-0.15,1.88-1.02,3.58-2.45,4.81c-1.42,1.21-3.22,1.8-5.07,1.65c-0.01,0-0.01,0-0.02,0
			c-1.86-0.15-3.55-1.02-4.76-2.44c-1.22-1.43-1.8-3.25-1.65-5.13l0.36-4.47l13.95,1.11L352.33,485.36z M407.45,486.86
			c-0.15,1.88-1.02,3.59-2.45,4.81c-1.42,1.21-3.22,1.8-5.07,1.65c-0.01,0-0.01,0-0.02,0c-3.85-0.31-6.72-3.7-6.41-7.57l0.37-4.64
			c3.88-0.39,7.75-0.9,11.59-1.53c0.87-0.14,1.74-0.3,2.6-0.45L407.45,486.86z M435.34,445.75c-2.86,8.59-9.83,14.89-18.61,16.85
			c-4.31,0.95-8.89,1.84-13.63,2.62c-13.74,2.26-27.76,2.86-41.68,1.77l-0.2-0.02c-0.04,0-0.08-0.01-0.13-0.02
			c-0.01,0-0.01,0-0.01,0c-0.04,0-0.08,0-0.12,0l-28.18-2.25c-0.04,0-0.09-0.01-0.13-0.02c-0.01,0-0.01,0-0.01,0
			c-0.04,0-0.08,0-0.13,0l-26.12-2.08c-0.11-0.01-0.21-0.03-0.32-0.04c-0.01,0-0.01,0-0.01,0c-0.1-0.01-0.21,0-0.31-0.01l-27.8-2.22
			c-0.11-0.01-0.21-0.03-0.32-0.04c-0.01,0-0.01,0-0.01,0c-0.11-0.01-0.21,0-0.31-0.01l-123.15-9.82c-0.11-0.01-0.21-0.03-0.32-0.04
			c-0.01,0-0.01,0-0.01,0c-0.11-0.01-0.21,0-0.31-0.01l-27.79-2.22c-0.11-0.01-0.22-0.03-0.33-0.04c-0.01,0-0.01,0-0.02,0
			c-0.11-0.01-0.21-0.01-0.32-0.01l-6.38-0.51c-1.35-5.64-3.03-11.17-5.02-16.57c18.47,1.32,37.24,2.84,55.99,4.56
			c0.03,0,0.07,0.01,0.1,0.01c3.96,0.31,7.44-2.62,7.8-6.58c0.37-4-2.58-7.54-6.58-7.91c-21.4-1.97-42.86-3.68-63.84-5.12
			c-14.75-29.34-39.16-53.31-69.54-67.24l-3.03-1.39l15.03-44.77l29.23,2.33l2.92,9.27c6.68,21.21,25.33,36.03,47.51,37.75
			c14.63,1.14,28.79-3.64,39.87-13.45l27.19-24.07c0.42-0.23,0.83-0.5,1.21-0.82c0.47-0.4,0.88-0.85,1.22-1.33l14.12-12.5
			c3.97,4.34,10.24,10.92,18.61,18.78l-12.93,11.06c-3.05,2.61-3.41,7.2-0.8,10.25c1.31,1.53,3.11,2.38,4.96,2.53
			c1.85,0.14,3.76-0.42,5.29-1.72l14.35-12.27c5.2,4.55,10.95,9.35,17.22,14.26l-13.59,11.62c-3.05,2.61-3.41,7.2-0.8,10.25
			c1.31,1.53,3.11,2.38,4.96,2.53c1.85,0.14,3.76-0.42,5.29-1.72l16.02-13.7c5.72,4.15,11.93,8.43,18.61,12.71l-10.7,8.96
			c-3.08,2.58-3.49,7.17-0.91,10.24c1.31,1.56,3.13,2.44,5.01,2.58c1.83,0.14,3.71-0.4,5.23-1.67l14.45-12.1
			c30.45,17.8,68.58,34.18,111.48,39.75c3.05,0.4,5.98,1.36,8.7,2.84c2.73,1.5,5.15,3.46,7.19,5.83c2.37,2.77,4.07,5.91,5.08,9.25
			c-17.5,3.47-36.21,5.34-55.75,5.55c-32.88,0.42-70.27-2.99-106.44-6.28c-21.61-1.97-42.02-3.83-61.43-4.92
			c-4.01-0.23-7.44,2.84-7.67,6.85c-0.23,4.01,2.87,7.48,6.85,7.67c19.17,1.08,39.45,2.92,60.93,4.88
			c13.7,1.25,27.56,2.51,41.32,3.58c22.94,1.78,45.59,3.03,66.61,2.76c19.39-0.21,38.03-2.01,55.61-5.31
			C435.52,445.16,435.44,445.46,435.34,445.75z"/>
	</g>
</g>
<g id="Clocks_1_">
	<path id="Clocks" class="st0" d="M486.96,226.29c-1.41-6.63-5.43-12.11-11.01-15.04l-8.39-4.42l3.57-6.78
		c6.41-12.17,1.05-27.64-11.94-34.48l-11.06-5.82l6.58-12.51c3.1-5.89,3.61-12.95,1.42-19.38c-4.37-12.79-19.39-20.69-32.4-17.06
		c-6.55,1.84-12.09,6.26-15.18,12.14l-30.88,58.67l-150.05-78.98l30.88-58.67c3.1-5.89,3.62-12.95,1.42-19.38
		c-4.37-12.79-19.39-20.69-32.4-17.06c-6.55,1.83-12.08,6.25-15.18,12.14l-6.58,12.51l-12.41-6.53c-5.83-3.07-12.46-3.87-18.66-2.25
		c-6.29,1.66-11.59,5.82-14.52,11.39l-4.22,8.01l-8.31-4.37c-5.61-2.95-12.43-3.16-18.71-0.56c-5.96,2.47-11,7.17-14.2,13.25
		l-17.79,33.8c-3.2,6.08-4.22,12.9-2.87,19.21c1.42,6.65,5.45,12.15,11.05,15.1l8.31,4.37l-4.22,8.01
		c-2.93,5.57-3.36,12.29-1.16,18.44c2.17,6.02,6.58,11.03,12.41,14.1l12.41,6.53l-6.58,12.51c-3.1,5.89-3.61,12.95-1.41,19.38
		c2.19,6.39,6.75,11.68,12.85,14.89c6.11,3.21,13.05,3.98,19.56,2.16c6.55-1.83,12.08-6.25,15.17-12.13l30.88-58.67l150.05,78.98
		l-30.88,58.67c-3.1,5.89-3.61,12.95-1.41,19.38c2.19,6.39,6.75,11.68,12.85,14.89c6.11,3.21,13.05,3.98,19.56,2.16
		c6.54-1.83,12.08-6.25,15.17-12.13l6.58-12.51l11.06,5.82c12.99,6.84,28.78,2.5,35.18-9.68l3.57-6.78l8.39,4.42
		c5.58,2.94,12.37,3.14,18.64,0.56c5.94-2.45,10.96-7.13,14.15-13.19l17.89-33.99C487.28,239.37,488.3,232.57,486.96,226.29z
		 M111.17,107.68c-2.2-1.16-3.75-3.39-4.37-6.28c-0.7-3.28-0.1-7.08,1.66-10.42l17.79-33.8c1.76-3.34,4.54-5.98,7.65-7.26
		c2.73-1.13,5.45-1.11,7.65,0.05l8.31,4.37l-30.38,57.71C119.48,112.05,111.17,107.68,111.17,107.68z M126.51,152.6
		c-2.9-1.53-5.17-4.07-6.21-6.96c-0.98-2.75-0.83-5.57,0.43-7.96l7.25-13.78l36.45-69.25l7.25-13.78c1.26-2.39,3.5-4.12,6.31-4.86
		c2.99-0.78,6.36-0.35,9.26,1.18l12.41,6.53l-60.75,115.42C138.92,159.13,126.51,152.6,126.51,152.6z M160.88,201.4
		c-1.45,2.76-3.99,4.77-7.14,5.65c-6.48,1.81-14.38-2.35-16.56-8.71c-1.06-3.09-0.84-6.32,0.61-9.08l9.62-18.28l66.83-126.96
		l9.62-18.28c1.45-2.76,3.99-4.77,7.14-5.65c3.24-0.9,6.87-0.49,9.97,1.14c3.1,1.63,5.5,4.39,6.59,7.57
		c1.06,3.09,0.84,6.32-0.62,9.09l-33.92,64.44l-18.23,34.63L160.88,201.4z M209.38,137.26l12.15-23.08l150.05,78.98l-12.15,23.08
		L209.38,137.26z M357.1,304.68c-1.45,2.76-3.99,4.77-7.14,5.65c-6.48,1.81-14.38-2.35-16.56-8.71c-1.06-3.09-0.84-6.32,0.61-9.08
		l33.92-64.44l18.23-34.63l33.92-64.44c1.45-2.76,3.99-4.77,7.14-5.65c3.24-0.9,6.87-0.49,9.97,1.14c3.1,1.63,5.5,4.39,6.59,7.57
		c1.06,3.09,0.84,6.32-0.62,9.08l-9.62,18.28l-66.83,126.96L357.1,304.68z M409.93,288.32c-3.06,5.81-10.94,7.7-17.57,4.21
		l-11.06-5.82l60.75-115.42l11.06,5.82c6.63,3.49,9.53,11.05,6.47,16.87l-6.6,12.55l-36.45,69.25L409.93,288.32z M454.67,273.33
		c-1.74,3.31-4.51,5.93-7.58,7.21c-2.71,1.12-5.41,1.1-7.58-0.04l-8.39-4.42l30.38-57.71l8.39,4.42c2.18,1.15,3.72,3.36,4.33,6.23
		c0.7,3.26,0.09,7.02-1.65,10.33L454.67,273.33z"/>
</g>
</svg>
