<?xml version="1.0" encoding="utf-8"?>
<!-- Generator: Adobe Illustrator 23.0.0, SVG Export Plug-In . SVG Version: 6.00 Build 0)  -->
<svg version="1.1" id="Capa_1" xmlns="http://www.w3.org/2000/svg" xmlns:xlink="http://www.w3.org/1999/xlink" x="0px" y="0px"
	 viewBox="0 0 512 512" style="enable-background:new 0 0 512 512;" xml:space="preserve">
<style type="text/css">
	.st0{fill:#FF575A;}
</style>
<g>
	<g>
		<path class="st0" d="M479.74,428.55h-72.42c-4.14,0-7.5,3.36-7.5,7.5s3.36,7.5,7.5,7.5h64.92v4.23l-109.21,20.74H144.13
			L34.92,447.78v-4.23h29.82c0.01,0,0.02,0,0.04,0c0.01,0,0.02,0,0.03,0h27.02c0.01,0,0.02,0,0.03,0c0.01,0,0.03,0,0.04,0h89.92
			c0.01,0,0.01,0,0.02,0c0.01,0,0.01,0,0.01,0h26.79c0.01,0,0.02,0,0.02,0s0.02,0,0.02,0h89.79c0.01,0,0.02,0,0.02,0s0.02,0,0.02,0
			h80.95c4.14,0,7.5-3.36,7.5-7.5s-3.36-7.5-7.5-7.5h-48.38c8.96-5.69,17.32-12.36,24.83-19.87c10.85-10.85,19.75-23.13,26.56-36.4
			c9.48,3.86,19.53,5.82,29.94,5.82c43.92,0,79.66-35.74,79.66-79.67c0-43.93-35.74-79.66-79.66-79.66c-4.76,0-9.48,0.43-14.11,1.26
			v-4.29c0-9.6-7.81-17.41-17.41-17.41h-35.47c-4.14,0-7.5,3.36-7.5,7.5s3.36,7.5,7.5,7.5h35.47c1.33,0,2.41,1.08,2.41,2.41v12.75
			H123.84v-12.75c0-1.33,1.08-2.41,2.41-2.41h191.32c4.14,0,7.5-3.36,7.5-7.5s-3.36-7.5-7.5-7.5H126.25
			c-9.6,0-17.41,7.81-17.41,17.41v90.58c0,11.31,1.32,22.53,3.9,33.42c-12.21-3.64-26.75-0.78-40.03,8.3
			c-3.42,2.34-4.29,7.01-1.96,10.42c2.34,3.42,7.01,4.29,10.43,1.95c8.7-5.95,17.83-8.29,25.37-6.77l-27.32,40.87
			c-2.3,3.44-1.38,8.1,2.07,10.4c1.28,0.86,2.73,1.27,4.16,1.27c2.42,0,4.8-1.17,6.24-3.33l27.33-40.89
			c2.83,4.21,4.39,9.71,4.46,16.13c0,0,0,0.01,0,0.01c0,0.01,0,0.03,0,0.04c0.1,9.91-3.36,20.63-9.75,30.18
			c-3.64,5.45-7.94,10.12-12.82,13.9c-3.38,2.65-6.93,4.76-10.57,6.31H66.68c-0.27-0.16-0.54-0.33-0.81-0.51
			c-12.49-8.34-13.28-29.91-1.8-49.1c2.13-3.55,0.97-8.16-2.59-10.29c-3.55-2.12-8.16-0.97-10.29,2.59
			c-7.32,12.23-10.89,25.87-10.06,38.39c0.47,7.1,2.33,13.5,5.39,18.92h-19.1c-4.14,0-7.5,3.36-7.5,7.5v17.94
			c0,3.6,2.56,6.7,6.1,7.37l110.29,20.95v22.2c0,4.14,3.36,7.5,7.5,7.5h219.53c4.14,0,7.5-3.36,7.5-7.5v-22.19l110.3-20.95
			c3.54-0.67,6.1-3.77,6.1-7.37v-17.94C487.24,431.91,483.88,428.55,479.74,428.55z M398.31,306.33v-35.48h0
			c4.35-2.23,9.15-3.42,14.11-3.42c17.1,0,31.01,13.91,31.01,31.01s-13.91,31.01-31.01,31.01c-5.45,0-10.69-1.42-15.35-4.08
			C397.88,319.11,398.31,312.75,398.31,306.33z M394.22,340.7c5.7,2.46,11.86,3.75,18.2,3.75c25.37,0,46.01-20.64,46.01-46.01
			s-20.64-46.01-46.01-46.01c-4.84,0-9.59,0.76-14.11,2.21v-18.57c0-0.03,0-0.05,0-0.08s0-0.05,0-0.08v-0.59
			c4.6-1.03,9.33-1.55,14.11-1.55c35.65,0,64.66,29.01,64.66,64.66c0,35.66-29.01,64.67-64.66,64.67c-8.27,0-16.24-1.54-23.78-4.54
			C390.88,352.76,392.74,346.79,394.22,340.7z M123.84,243.5h259.47v23.09c0,0.01,0,0.02,0,0.02v39.72
			c0,34.65-13.49,67.24-37.99,91.74c-13.57,13.56-30.2,24.08-48.13,30.48h-87.2c-2.42-0.86-4.83-1.79-7.2-2.8
			c5.5-8.65,7.6-18.28,5.79-27.45c0-0.01,0-0.02-0.01-0.04c0-0.01-0.01-0.03-0.01-0.04c-2.39-11.93-10.82-21.76-23.75-27.65
			c-12.11-5.52-26.91-6.95-41.68-4.02c-1.34,0.27-2.67,0.57-3.99,0.91c-10.01-18.71-15.29-39.72-15.29-61.12V243.5z M126.22,416.67
			c6.94-10.39,11.13-22.04,12.07-33.33c2.52-0.85,5.1-1.56,7.76-2.09c19.08-3.79,37.48,1.95,44.82,12.88l-48.2,9.58
			c-4.06,0.81-6.7,4.76-5.9,8.82c0.71,3.57,3.84,6.04,7.35,6.04c0.48,0,0.98-0.05,1.47-0.15l48.23-9.59
			c-0.96,4.93-3.71,9.88-8.12,14.42c-0.01,0.01-0.02,0.02-0.03,0.04c-1.84,1.89-3.91,3.64-6.18,5.25h-63.06
			C120.03,425,123.31,421.03,126.22,416.67z M355.84,497H151.31v-13.48h204.53V497z"/>
	</g>
</g>
<g>
	<g>
		<g>
			<path class="st0" d="M273.1,149.95c-0.14,0.09-0.25,0.15-0.33,0.21C272.85,150.11,272.95,150.04,273.1,149.95z"/>
			<path class="st0" d="M272.77,150.15C272.57,150.28,272.6,150.26,272.77,150.15L272.77,150.15z"/>
			<path class="st0" d="M289.33,81.87c10.1-9.6,15.92-22.9,15.92-37.18c0-17.77-9-34.05-24.07-43.53
				c-3.51-2.21-8.14-1.15-10.34,2.35c-2.21,3.51-1.15,8.14,2.35,10.34c10.68,6.72,17.06,18.25,17.06,30.83s-6.38,24.11-17.06,30.84
				c-4.58,2.88-4.58,9.81,0,12.7c10.68,6.72,17.06,18.25,17.06,30.83c0,12.59-6.38,24.12-17.06,30.84c-0.04,0.02-0.06,0.04-0.1,0.06
				c0.03-0.02,0.06-0.04,0.1-0.06c-3.51,2.21-4.56,6.84-2.35,10.34c1.42,2.27,3.86,3.51,6.35,3.51c1.36,0,2.75-0.37,3.99-1.15
				c15.07-9.48,24.07-25.76,24.07-43.53C305.25,104.77,299.43,91.47,289.33,81.87z M277.11,147.42
				C277.28,147.31,277.31,147.3,277.11,147.42L277.11,147.42z M276.13,148.04c0.16-0.1,0.32-0.2,0.45-0.29
				C276.45,147.84,276.3,147.93,276.13,148.04z"/>
		</g>
	</g>
</g>
<g>
	<g>
		<path class="st0" d="M333.96,75.52c-3.51-2.21-8.14-1.15-10.34,2.35c-2.21,3.5-1.15,8.14,2.35,10.34
			c10.68,6.72,17.06,18.25,17.06,30.84c0,12.58-6.38,24.11-17.06,30.83c-3.51,2.21-4.56,6.84-2.35,10.34
			c1.42,2.27,3.86,3.51,6.35,3.51c1.36,0,2.75-0.37,3.99-1.15c15.07-9.48,24.07-25.76,24.07-43.53S349.04,85,333.96,75.52z"/>
	</g>
</g>
<g>
	<g>
		<path class="st0" d="M224.08,75.52c-3.51-2.21-8.14-1.15-10.34,2.35c-2.21,3.51-1.15,8.14,2.35,10.34
			c10.68,6.72,17.06,18.25,17.06,30.83c0,12.59-6.38,24.12-17.06,30.84c-3.51,2.21-4.56,6.84-2.35,10.34
			c1.43,2.27,3.86,3.51,6.35,3.51c1.37,0,2.75-0.37,3.99-1.15c15.07-9.48,24.07-25.76,24.07-43.53
			C248.15,101.28,239.15,85,224.08,75.52z"/>
	</g>
</g>
</svg>
