<?xml version="1.0" encoding="utf-8"?>
<!-- Generator: Adobe Illustrator 23.0.0, SVG Export Plug-In . SVG Version: 6.00 Build 0)  -->
<svg version="1.1" id="Capa_1" xmlns="http://www.w3.org/2000/svg" xmlns:xlink="http://www.w3.org/1999/xlink" x="0px" y="0px"
	 viewBox="0 0 512 512" style="enable-background:new 0 0 512 512;" xml:space="preserve">
<style type="text/css">
	.st0{fill:#FF575A;}
</style>
<g>
	<g>
		<path class="st0" d="M507.34,443.66c-2.46-3.69-47.25-55.13-111.18-90.98c-14.98-8.4-33.21-7.58-47.58,2.15
			c-13.75,9.31-32.01,14.64-50.12,14.64c-20.31,0-38.44-9.48-53.88-28.18c-15.18-18.39-10.12-13.86-107.26-228.44
			c-1.7-3.78-6.14-5.46-9.92-3.76c-3.78,1.7-5.46,6.14-3.76,9.92l89.22,198.36c0.85,2.16,7.13,17.59,19.84,33.11
			c18.22,22.24,40.95,34,65.75,34c21.34,0,42.12-6.11,58.52-17.22c9.64-6.52,21.84-7.09,31.83-1.49
			c60.62,34,102.48,82.13,106.23,86.53c5.21,8.35-0.75,19.23-10.65,19.23h-52.12c-4.14,0-7.5,3.36-7.5,7.5s3.36,7.5,7.5,7.5h52.12
			C506.38,486.52,519.53,461.99,507.34,443.66z"/>
	</g>
</g>
<g>
	<g>
		<path class="st0" d="M397.28,471.52H267.84c-48.04,0-73.78-49.23-74.08-49.8c-11.85-22.64-24.19-53.01-37.94-86.2
			C122.43,255.08,30.15,149.71,15.03,132.74c1.06-48.58,29.2-75.72,52.95-90.01c0.78-0.4,7.72-3.78,14.5-1.5
			c4.85,1.64,8.88,5.98,12,12.91L109.26,87c1.7,3.78,6.14,5.46,9.92,3.76c3.78-1.7,5.46-6.14,3.76-9.92l-14.78-32.86
			c-4.94-10.97-12.02-18.04-21.07-21.03c-8.95-2.95-20.01-1.22-26.67,2.81C22.42,52.57,0,89.07,0,135.58c0,0.2,0.01,0.4,0.03,0.6
			c0.03,0.31,0.09,0.79,0.21,1.29c47.47,183.23,42.91,161.16,43.95,182.83l0.62,12.61c0.2,4.14,3.72,7.3,7.86,7.13
			c4.14-0.2,7.33-3.72,7.13-7.86l-0.61-12.43c-0.04-23.88-4.83-29.83-36.37-154.96c20.85,24.77,53.63,65.5,81.09,107.47
			c-11.15,0.44-18.36,10.82-18.43,21.76L80.1,464.39c-0.13,4-3.36,7.13-7.36,7.13c-3.44,0-6.26-2.69-6.43-6.13l-4.8-98.23
			c-0.2-4.14-3.73-7.32-7.86-7.13c-4.14,0.2-7.33,3.72-7.13,7.86l4.8,98.23c0.56,11.44,9.97,20.39,21.42,20.39
			c12.15,0,21.97-9.51,22.35-21.66c5.61-177.68,5.39-170.52,5.39-170.73c0-2.92,1.5-6.12,3.15-6.72c1.95-0.72,7.72,1.03,17.05,11.88
			c25.87,44.39,35.46,82.88,59.75,129.3c1.2,2.36,30.05,57.93,87.41,57.93h129.45c4.14,0,7.5-3.36,7.5-7.5
			S401.43,471.52,397.28,471.52z"/>
	</g>
</g>
</svg>
