<?xml version="1.0" encoding="utf-8"?>
<!-- Generator: Adobe Illustrator 23.0.0, SVG Export Plug-In . SVG Version: 6.00 Build 0)  -->
<svg version="1.1" id="Capa_1" xmlns="http://www.w3.org/2000/svg" xmlns:xlink="http://www.w3.org/1999/xlink" x="0px" y="0px"
	 viewBox="0 0 512 512" style="enable-background:new 0 0 512 512;" xml:space="preserve">
<style type="text/css">
	.st0{fill:#FF575A;}
</style>
<g>
	<g>
		<path class="st0" d="M271.12,231.98c-4.14,0-7.5,3.36-7.5,7.5v8.66c0,4.2-3.42,7.62-7.62,7.62c-4.2,0-7.62-3.42-7.62-7.62v-8.66
			c0-4.14-3.36-7.5-7.5-7.5s-7.5,3.36-7.5,7.5v8.66c0,12.47,10.15,22.62,22.62,22.62c12.47,0,22.62-10.15,22.62-22.62v-8.66
			C278.62,235.34,275.26,231.98,271.12,231.98z"/>
	</g>
</g>
<g>
	<g>
		<path class="st0" d="M347.23,206.47c-2.66-3.18-7.39-3.6-10.56-0.94c-11.85,9.92-29.14,9.9-40.98,0
			c-3.17-2.66-7.9-2.24-10.56,0.94c-2.66,3.18-2.24,7.91,0.94,10.56c17.42,14.58,42.83,14.56,60.23,0
			C349.47,214.38,349.89,209.65,347.23,206.47z"/>
	</g>
</g>
<g>
	<g>
		<path class="st0" d="M226.88,206.47c-2.66-3.18-7.39-3.6-10.57-0.94c-11.85,9.92-29.14,9.9-40.97,0
			c-3.17-2.66-7.91-2.24-10.56,0.94c-2.66,3.18-2.24,7.91,0.94,10.56c8.42,7.05,19.12,10.93,30.11,10.93s21.69-3.88,30.11-10.93
			C229.11,214.38,229.53,209.65,226.88,206.47z"/>
	</g>
</g>
<g>
	<g>
		<path class="st0" d="M256.5,282.43c-10.33,0-18.73,8.4-18.73,18.73v7.89c0,10.33,8.4,18.73,18.73,18.73
			c10.33,0,18.73-8.4,18.73-18.73v-7.89C275.23,290.83,266.83,282.43,256.5,282.43z M260.23,309.04c0,2.06-1.67,3.73-3.73,3.73
			s-3.73-1.67-3.73-3.73v-7.89c0-2.06,1.67-3.73,3.73-3.73s3.73,1.67,3.73,3.73V309.04z"/>
	</g>
</g>
<g>
	<g>
		<path class="st0" d="M443.72,438.54c-4.33-15.67-15.11-29.06-29.58-36.74c-5.65-2.99-11.42-5.78-17.2-8.38
			c25.94-59.47,47.29-140.53,42.43-204.96c7.67-16.37,18.21-26.74,17.25-46.43c-0.01-0.1-2.32-47.49-2.32-47.59
			c-0.43-10.13-3.85-19.77-9.91-27.9c-1.68-2.26-2.61-5.19-2.61-8.25V17.3c0-9.53-7.75-17.28-17.28-17.28H383.3
			c-10.75,0-19.5,8.75-19.5,19.5v18.32c-8.18-6.49-16.87-12.25-25.97-17.16c-3.64-1.97-8.19-0.61-10.16,3.03
			c-1.97,3.64-0.61,8.19,3.03,10.16c11.87,6.41,22.99,14.37,33.1,23.67v13.45c-7.91,10.86-6.98,17.78-9.28,22.29
			c-5.32,10.42-17.41,19.76-26.28,26c-14.42,10.4-12.58,26.43-2.63,35.45c-34.13-15.11-72.4-39.68-97.92-67.32
			c-4.44-4.79-12.31-3.92-15.55,1.83c-3.17,5.64-11.56,19.14-25.66,32.25c-4.12-3.73-27.84-18.36-30.57-33.35
			c-1.12-6.12-4.08-12.19-7.69-17.15V57.54c42.54-39.13,99.77-51.24,151.31-36.42c3.98,1.15,8.14-1.15,9.28-5.14
			c1.14-3.98-1.15-8.14-5.14-9.28c-52.51-15.1-110.26-4.69-155.46,31.12V19.52c0-10.75-8.75-19.5-19.5-19.5h-41.2
			c-9.53,0-17.28,7.75-17.28,17.28c-0.77,39.22,1.86,43.26-2.61,49.25c-6.08,8.16-9.51,17.85-9.91,28.02
			c-0.17,4.14,3.06,7.63,7.19,7.79c4.13,0.16,7.63-3.06,7.79-7.19c0.75-18.7,12.53-19.72,12.53-36.86V17.3
			c0-1.26,1.02-2.28,2.28-2.28h41.19c2.44,0,4.5,2.06,4.5,4.5c0,67.71-1.75,52.21,4.54,62.81c4.85,8.17,2.38,9.9,6.39,17.77
			c7.7,15.08,25.6,27.83,30.91,31.38c0.5,0.44,2.6,1.74,3.67,3.94c1.44,3.11-0.73,6.2-0.7,6.1c-1,1.7-2.37,2.8-3.91,3.45
			c-4.46,1.87-8.32-0.05-12.28-2.13c-14.42-7.89-21.12-16.1-29.69-24.61c-8.13-8.24-22-4.55-25.28,5.08l-5.69,16.8
			c-5.55,12.48,0.46,19.36,13.84,59.54c1.55,4.43-0.5,9.25-4.73,11.22c-3.8,1.77-8.33,0.27-10.32-3.41l-13.06-24.17v0
			c-9.47-19.47-17.2-26.31-16.51-40.49l0.57-11.6c0.2-4.14-2.99-7.65-7.12-7.86c-4.13-0.18-7.65,2.99-7.86,7.12l-0.57,11.6
			c-0.96,19.7,9.59,30.07,17.25,46.43c-4.86,64.42,16.46,145.44,42.43,204.96c-5.79,2.6-11.56,5.39-17.2,8.38
			c-14.47,7.67-25.25,21.07-29.58,36.74l-11.69,42.34c-2.06,7.46-0.55,15.27,4.13,21.43c4.69,6.16,11.81,9.69,19.55,9.69h235.91
			c4.14,0,7.5-3.36,7.5-7.5s-3.36-7.5-7.5-7.5H134.69v-36.73c0-4.14-3.36-7.5-7.5-7.5s-7.5,3.36-7.5,7.5V497H80.27
			c-6.33,0-10.91-6.02-9.23-12.12l11.69-42.34c3.24-11.71,11.31-21.73,22.15-27.48c34.37-18.23,74.65-28.85,92.19-32.93
			c0,0.1,0,6.34,0,6.21c0,4.68,1.16,9.27,3.15,13.2c3.99,7.85,20.65,27.68,39.13,40.88c9.95,7.11,23.32,7.11,33.27,0
			c14.09-10.07,27-23.43,36.74-36.95c5.43-7.54,5.73-14.34,5.54-23.34c29.95,6.96,64.72,18.36,92.19,32.93
			c10.84,5.75,18.92,15.77,22.15,27.48l11.69,42.34c1.68,6.1-2.9,12.12-9.23,12.12h-39.42v-36.73c0-4.14-3.36-7.5-7.5-7.5
			s-7.5,3.36-7.5,7.5V497h-26.13c-4.14,0-7.5,3.36-7.5,7.5s3.36,7.5,7.5,7.5h80.55c16.24,0,28.01-15.45,23.69-31.12L443.72,438.54z
			 M336.97,131.47c13.41-8.95,30.52-23.99,33.72-39.83c2.31-11.44,8.11-12.66,8.11-18.1V19.52c0-2.44,2.06-4.5,4.5-4.5h41.19
			c1.26,0,2.28,1.02,2.28,2.28v41.01c0,17.59,11.11,16.31,12.55,37.12c0.07,1,0.09,0.94,0.08,0.66c0.1,2.35,0.54,12.18,2.23,46.69
			c0.29,5.97-1.06,11.9-3.9,17.16l-25.67,47.49c-1.99,3.69-6.53,5.18-10.32,3.42c-4.24-1.98-6.27-6.8-4.73-11.22l14.57-41.69
			c2.11-6.03,1.68-12.42-0.73-17.84c-0.03-0.1-5.78-17.09-6-17.57c-4.52-9.67-17.38-12.01-24.97-4.31
			c-5.63,5.71-5.37,5.43-5.58,5.66c-12.33,13.67-26.8,20.36-27.42,20.64c-4.83,2.21-10.81,1.59-13.46-4.1
			C332.21,137.83,336.57,132,336.97,131.47z M389.32,176.15c-3.35-2.53-17.45-3.1-49.35-15.47c4.57,0.32,9.05-0.66,13.14-2.53
			c1.81-0.83,18.09-8.51,32.21-24.1c4.21-3.91,5.17-5.95,5.84-5.32l5.6,16.53c0.31,0.91,2.03,3.79,0.66,7.73L389.32,176.15z
			 M115.24,145.26l5.6-16.53c1.19-1.12,6.75,8.37,20.87,18.93c-9.04,2.69-13.25,2.74-15.13,3.55c-9.1,3.95-6.44,14.18-6.88,16.44
			C113.16,148.86,113.2,151.25,115.24,145.26z M197.08,366.73c-11.91,2.64-39.22,9.34-68.2,20.87
			c-24.8-56.77-40.5-121.54-41.89-172.58c6.23,10.94,20.89,15.43,32.7,7.66c1.3,7.84-8.81,63.06,39.8,109.84
			c11.11,10.7,23.82,19.33,37.58,25.68L197.08,366.73L197.08,366.73z M293.93,401.05c-8.51,10.91-18.8,21.14-30.02,29.16
			c-4.44,3.17-10.31,3.37-14.93,0.6c-10.94-6.58-31.05-27.99-35.21-35.75c-2.26-4.22-1.7-4.98-1.7-30.98
			c27.75,9.05,59.19,9.34,87.84,0C299.92,394.51,301.31,391.6,293.93,401.05z M253.37,355.94c-0.01,0-0.1,0-0.11,0v0
			c-0.05,0-0.1,0-0.16,0v0c-64.45-1.35-118.4-51.7-118.4-115.88c0.01-87.11,0.01-73.36,0.01-75.26c7.95-1.53,15.77-3.9,23.31-7.05
			c21.3,10.28,38.22-7.62,36.03-22.88c13.2-11.7,22.26-24.03,27.46-32.14c33.01,33.98,91.29,69.74,155.79,85.37l0.01,51.96
			C377.31,306.62,319.12,357.96,253.37,355.94z M314.92,366.73v-8.52c13.77-6.35,26.47-14.98,37.59-25.68
			c48.64-46.8,38.49-101.95,39.8-109.84c11.65,7.67,26.37,3.42,32.7-7.67c-1.38,51.04-17.09,115.8-41.88,172.57
			C354.06,376.02,326.75,369.34,314.92,366.73z"/>
	</g>
</g>
</svg>
