<?xml version="1.0" encoding="utf-8"?>
<!-- Generator: Adobe Illustrator 23.0.0, SVG Export Plug-In . SVG Version: 6.00 Build 0)  -->
<svg version="1.1" id="Layer_1" xmlns="http://www.w3.org/2000/svg" xmlns:xlink="http://www.w3.org/1999/xlink" x="0px" y="0px"
	 viewBox="0 0 512 512" style="enable-background:new 0 0 512 512;" xml:space="preserve">
<style type="text/css">
	.st0{fill:#FF575A;}
</style>
<g>
	<g>
		<path class="st0" d="M503.85,281.55c4.5,0,8.15-3.65,8.15-8.15V164.69c0-23.68-19.26-42.94-42.94-42.94h-61.42V69.03
			c0-4.5-3.65-8.15-8.15-8.15H8.15c-4.5,0-8.15,3.65-8.15,8.15v247.85c0,4.5,3.65,8.15,8.15,8.15s8.15-3.65,8.15-8.15V207.63h375.03
			v182.31v0.86c0,17.35,7.36,33.01,19.12,44.02H60.33c-24.28,0-44.03-19.75-44.03-44.03v-30.44c0-4.5-3.65-8.15-8.15-8.15
			S0,355.85,0,360.36v30.44c0,33.27,27.06,60.33,60.33,60.33h391.34c0,0,0,0,0,0c0,0,0.01,0,0.01,0c15.93,0,30.91-6.13,42.29-17.31
			C505.6,422.38,512,407.1,512,390.79v-73.92c0-4.5-3.65-8.15-8.15-8.15s-8.15,3.65-8.15,8.15v73.92c0,11.9-4.67,23.05-13.16,31.39
			c-8.39,8.26-19.47,12.71-31.25,12.62c-1.7-0.01-3.4-0.13-5.09-0.34c-21.65-2.77-38.56-21.81-38.56-44.53v-60.56h26.63
			c4.5,0,8.15-3.65,8.15-8.15V164.69c0-14.69,11.95-26.63,26.63-26.63s26.63,11.95,26.63,26.63v108.71
			C495.69,277.9,499.34,281.55,503.85,281.55z M391.34,191.32H16.31V77.18h375.03V191.32z M426.12,164.69v148.38h-18.48V138.05
			h27.76C429.6,145.38,426.12,154.64,426.12,164.69z"/>
	</g>
</g>
<g>
	<g>
		<path class="st0" d="M112.51,95.66c-4.5,0-8.15,3.65-8.15,8.15v38.84L66.52,98.51c-4.82-5.63-14.34-2.09-14.34,5.31v60.88
			c0,4.5,3.65,8.15,8.15,8.15s8.15-3.65,8.15-8.15v-38.84l37.84,44.14c4.83,5.63,14.34,2.08,14.34-5.31v-60.88
			C120.66,99.31,117.01,95.66,112.51,95.66z"/>
	</g>
</g>
<g>
	<g>
		<path class="st0" d="M182.08,156.53h-35.33v-18.48h17.94c4.5,0,8.15-3.65,8.15-8.15s-3.65-8.15-8.15-8.15h-17.94v-9.78h35.33
			c4.5,0,8.15-3.65,8.15-8.15s-3.65-8.15-8.15-8.15H138.6c-4.5,0-8.15,3.65-8.15,8.15v60.88c0,4.5,3.65,8.15,8.15,8.15h43.48
			c4.5,0,8.15-3.65,8.15-8.15C190.23,160.18,186.58,156.53,182.08,156.53z"/>
	</g>
</g>
<g>
	<g>
		<path class="st0" d="M279.98,95.97c-4.33-1.24-8.84,1.27-10.08,5.6l-10.84,37.94l-8.54-21.34c-1.24-3.1-4.24-5.13-7.57-5.13
			s-6.33,2.03-7.57,5.13l-8.54,21.34l-10.84-37.94c-1.24-4.33-5.75-6.84-10.08-5.6c-4.33,1.24-6.84,5.75-5.6,10.08l17.39,60.88
			c0.96,3.35,3.94,5.72,7.42,5.9c3.5,0.2,6.69-1.88,7.99-5.12l9.82-24.56l9.82,24.56c1.24,3.11,4.25,5.13,7.57,5.13
			c0.14,0,0.28,0,0.42-0.01c3.48-0.18,6.46-2.55,7.42-5.9l17.39-60.88C286.82,101.72,284.31,97.21,279.98,95.97z"/>
	</g>
</g>
<g>
	<g>
		<path class="st0" d="M347.31,130.45h-35.33v-18.48h35.33c4.5,0,8.15-3.65,8.15-8.15s-3.65-8.15-8.15-8.15h-43.48
			c-4.5,0-8.15,3.65-8.15,8.15v34.79c0,4.5,3.65,8.15,8.15,8.15h35.33v9.78h-35.33c-4.5,0-8.15,3.65-8.15,8.15s3.65,8.15,8.15,8.15
			h43.48c4.5,0,8.15-3.65,8.15-8.15V138.6C355.46,134.09,351.82,130.45,347.31,130.45z"/>
	</g>
</g>
<g>
	<g>
		<path class="st0" d="M164.69,226.11H60.33c-4.5,0-8.15,3.65-8.15,8.15v86.96c0,4.5,3.65,8.15,8.15,8.15h104.36
			c4.5,0,8.15-3.65,8.15-8.15v-86.96C172.84,229.75,169.19,226.11,164.69,226.11z M156.54,313.07H68.48v-70.66h88.05V313.07z"/>
	</g>
</g>
<g>
	<g>
		<path class="st0" d="M347.31,269.59H225.56c-4.5,0-8.15,3.65-8.15,8.15c0,4.5,3.65,8.15,8.15,8.15h121.75
			c4.5,0,8.15-3.65,8.15-8.15C355.46,273.24,351.82,269.59,347.31,269.59z"/>
	</g>
</g>
<g>
	<g>
		<path class="st0" d="M347.31,226.11H225.56c-4.5,0-8.15,3.65-8.15,8.15s3.65,8.15,8.15,8.15h121.75c4.5,0,8.15-3.65,8.15-8.15
			S351.82,226.11,347.31,226.11z"/>
	</g>
</g>
<g>
	<g>
		<path class="st0" d="M347.31,313.07H225.56c-4.5,0-8.15,3.65-8.15,8.15s3.65,8.15,8.15,8.15h121.75c4.5,0,8.15-3.65,8.15-8.15
			S351.82,313.07,347.31,313.07z"/>
	</g>
</g>
<g>
	<g>
		<path class="st0" d="M347.31,356.55H225.56c-4.5,0-8.15,3.65-8.15,8.15s3.65,8.15,8.15,8.15h121.75c4.5,0,8.15-3.65,8.15-8.15
			S351.82,356.55,347.31,356.55z"/>
	</g>
</g>
<g>
	<g>
		<path class="st0" d="M173.38,356.55H51.63c-4.5,0-8.15,3.65-8.15,8.15s3.65,8.15,8.15,8.15h121.75c4.5,0,8.15-3.65,8.15-8.15
			S177.89,356.55,173.38,356.55z"/>
	</g>
</g>
<g>
	<g>
		<path class="st0" d="M173.38,400.03H51.63c-4.5,0-8.15,3.65-8.15,8.15c0,4.5,3.65,8.15,8.15,8.15h121.75
			c4.5,0,8.15-3.65,8.15-8.15C181.54,403.68,177.89,400.03,173.38,400.03z"/>
	</g>
</g>
<g>
	<g>
		<path class="st0" d="M347.31,400.03H225.56c-4.5,0-8.15,3.65-8.15,8.15c0,4.5,3.65,8.15,8.15,8.15h121.75
			c4.5,0,8.15-3.65,8.15-8.15C355.46,403.68,351.82,400.03,347.31,400.03z"/>
	</g>
</g>
</svg>
