<?xml version="1.0" encoding="iso-8859-1"?>
<!-- Generator: Adobe Illustrator 21.0.0, SVG Export Plug-In . SVG Version: 6.00 Build 0)  -->
<svg xmlns="http://www.w3.org/2000/svg" xmlns:xlink="http://www.w3.org/1999/xlink" version="1.1" id="Capa_1" x="0px" y="0px" viewBox="0 0 511.953 511.953" style="enable-background:new 0 0 511.953 511.953;" xml:space="preserve" width="512px" height="512px">
<path d="M490.264,79.231c-15.856-11.203-42.887-9.285-80.342,5.699c-3.846,1.539-5.716,5.904-4.177,9.75  c1.539,3.845,5.902,5.715,9.75,4.177c31.519-12.61,54.998-15.229,66.114-7.375c41.495,29.316-8.663,230.179-50.684,289.656  c-18.754,26.544-44.826,41.722-74.895,44.046c29.39-24.517,42.654-59.696,40.506-97.912c-1.174-21.22-7.015-49.525-15.955-79.798  l0.918-1.299l73.99-12.724c4.083-0.702,6.823-4.581,6.121-8.663c-0.703-4.082-4.585-6.823-8.663-6.121l-59.207,10.182l52.449-74.237  c2.39-3.383,1.585-8.063-1.798-10.453c-3.383-2.389-8.062-1.586-10.453,1.798l-36.5,51.661l-10.182-59.207  c-0.703-4.083-4.586-6.824-8.663-6.121c-4.083,0.702-6.823,4.581-6.121,8.663l12.725,73.991l-10.237,14.489  c-9.686-29.593-22.334-61.243-36.654-89.434c17.401-11.197,34.368-20.956,50.517-29.051c3.703-1.856,5.2-6.363,3.343-10.066  c-1.855-3.702-6.364-5.199-10.065-3.343c-16.288,8.165-33.356,17.96-50.83,29.157c-19.965-36.271-47.049-72.723-75.258-72.723  c-28.187,0-55.221,36.273-75.277,72.743C140.165,100.743,57.401,54.014,21.71,79.231c-54.502,38.506,5.866,252.216,47.088,310.562  c25.951,36.731,64.412,54.717,108.996,49.957c45.309,24.065,110.217,24.544,156.429,0.004c4.676,0.497,9.292,0.76,13.835,0.76  c38.395,0,71.746-17.641,95.118-50.722c21.77-30.813,46.198-97.777,59.403-162.844C511.794,181.541,522.449,101.97,490.264,79.231z   M81.05,381.137C39.557,322.408-11.489,121.052,30.366,91.482c10.161-7.18,31.004-5.572,58.688,4.527  c24.659,8.995,53.818,24.164,84.654,44.016c-4.834,9.523-9.461,19.401-13.785,29.306c-1.657,3.796,0.077,8.217,3.873,9.875  c3.802,1.66,8.219-0.083,9.875-3.873c12.991-29.757,50.586-106.358,82.343-106.358c52.474,0,127.721,200.417,125.685,269.637  c-2.002,64.869-53.858,101.418-118.185,104.18v-72.005l53.087-53.087c2.929-2.929,2.929-7.678,0-10.606  c-2.929-2.929-7.678-2.929-10.606,0l-42.48,42.48c0-12.238,0-76.001,0-96.49l53.087-53.087c2.929-2.929,2.929-7.678,0-10.606  c-2.929-2.929-7.678-2.929-10.606,0l-42.48,42.48c0-10.759,0-76.427,0-90.896c0-4.142-3.358-7.5-7.5-7.5c-4.142,0-7.5,3.358-7.5,7.5  v63.254l-42.48-42.48c-2.929-2.929-7.678-2.929-10.606,0c-2.929,2.929-2.929,7.678,0,10.606l53.087,53.087c0,9.74,0,82.928,0,96.49  l-42.48-42.48c-2.929-2.929-7.678-2.929-10.606,0c-2.929,2.929-2.929,7.678,0,10.606l53.087,53.087c0,8.684,0,76.362,0,99.646  c-65.729-2.822-118.245-40.904-118.245-108.002c0-37.049,18.847-97.103,32.049-131.668c1.478-3.87-0.46-8.205-4.33-9.683  c-3.872-1.479-8.205,0.461-9.683,4.33c-4.074,10.664-7.833,21.292-11.25,31.725l-10.278-14.548l12.725-73.991  c0.702-4.082-2.038-7.96-6.121-8.663c-4.081-0.701-7.961,2.038-8.663,6.121l-10.182,59.207l-36.5-51.661  c-2.39-3.383-7.07-4.188-10.453-1.798c-3.383,2.39-4.188,7.07-1.798,10.453l52.449,74.237l-59.207-10.182  c-4.08-0.697-7.961,2.039-8.663,6.121c-0.702,4.082,2.038,7.96,6.121,8.663l73.989,12.724l0.956,1.353  c-15.533,52.58-27.619,106.704,2.247,152.605c6.038,9.295,13.5,17.696,22.324,25.055C125.913,422.878,99.815,407.698,81.05,381.137z  " fill="#ff575a"/>















</svg>
