<?xml version="1.0" encoding="utf-8"?>
<!-- Generator: Adobe Illustrator 23.0.0, SVG Export Plug-In . SVG Version: 6.00 Build 0)  -->
<svg version="1.1" id="Capa_1" xmlns="http://www.w3.org/2000/svg" xmlns:xlink="http://www.w3.org/1999/xlink" x="0px" y="0px"
	 viewBox="0 0 512 512" style="enable-background:new 0 0 512 512;" xml:space="preserve">
<style type="text/css">
	.st0{fill:#FF575A;}
</style>
<g>
	<path class="st0" d="M512,124.26c-7.25,14.99-14.53,29.96-21.73,44.97c-6.27,13.06-12.43,26.18-18.67,39.26
		c-1.02,2.13-2.13,4.02,0.07,6.3c1.86,1.92,1.11,4.34,0.06,6.55c-3.3,6.92-6.56,13.85-9.88,20.75c-0.91,1.9-1.72,3.55,0.7,5.11
		c2.73,1.77,3.8,4.36,1.73,7.24c-2.1,2.93-4.91,2.11-7.63,0.81c-18.21-8.64-36.48-17.14-54.57-26.03c-4.33-2.13-6.07-1.08-7.83,2.96
		c-3.46,7.94-7.38,15.67-11.01,23.53c-2.32,5.04-2.18,5.22,3.3,5.23c27.16,0.02,54.32,0,81.47,0.01c8.38,0,9.51,1.35,10.25,9.76
		c2.13,24.2,4.47,48.37,6.72,72.56c2.02,21.7,5.26,43.37,5.76,65.11c0.78,33.68-26.32,57.59-54.25,58.04
		c-40.31,0.64-80.64,0.24-120.96,0.24c-83.14,0-166.28,0.04-249.42-0.08c-25.51-0.04-43.11-12.62-53.84-35.36
		c-5.83-12.34-4.54-25.28-3.23-38.27c2.04-20.36,3.82-40.75,5.72-61.12c2-21.53,4.02-43.07,6.02-64.6c0.39-4.18,2.56-6.13,6.82-6.31
		c11.24-0.47,11.21-0.54,7.12-11.02c-9.56-24.51-19.07-49.05-28.65-73.56C3.4,169.5,1.89,162.33,0,155.26c0-8,0-16,0-24
		c1.89-4.96,2.77-10.28,5.64-14.9c3.3-5.32,4.9-6.01,10.58-3.74c11.15,4.46,18.86,12.84,25.47,22.46
		c6.71,9.75,10.39,20.79,13.84,31.97c9.21,29.93,18.56,59.81,27.74,89.74c0.87,2.83,2.16,4.15,5.23,4.08
		c7.33-0.15,14.67-0.15,22-0.01c3.88,0.08,4.42-1.44,3.5-4.91c-5.78-21.9-11.36-43.85-17.1-65.75c-1.26-4.81-2.39-9.21,4.04-11.32
		c2.67-0.88,0.96-3.25,0.58-4.76c-2.97-11.96-6.09-23.88-9.2-35.8c-1.01-3.86-1.35-7.33-0.03-11.54c1.83-5.86-0.55-12.17-1.05-18.29
		c-0.62-7.46-2.97-15.09-1.98-22.29c1.18-8.58-1.56-15.98-3.26-23.81c-0.63-2.9,0.08-5.29,2.29-7.2c4.41-3.81,8.75-7.73,13.32-11.33
		c4.5-3.54,7.94-2.27,9.7,3.32c0.55,1.75,1.12,3.52,1.37,5.32c2.15,15.86,12.6,28.3,17.69,42.95c1.63,4.71,3.92,9.19,5.9,13.78
		c1.18,2.74,2.18,5.45,5.11,7.1c2.16,1.22,2.32,3.92,2.9,6.16c3.27,12.57,6.57,25.13,9.75,37.73c0.73,2.88,1.47,4.64,5.28,4.11
		c4.14-0.58,5.38,2.93,6.26,6.39c7.16,28.08,14.48,56.11,21.47,84.23c1.13,4.53,2.85,6.2,7.67,6.08c13.49-0.35,27-0.24,40.49-0.05
		c3.95,0.05,5.63-0.93,5.59-5.26c-0.2-18-0.12-36-0.05-54c0.01-2.69-0.86-4.7-2.67-6.68c-10.5-11.55-22.37-20.91-37.86-24.87
		c-3.24-0.83-6.26-2.58-5.17-6.61c1.18-4.33,4.76-3.99,8.19-3.14c6.42,1.59,12.36,4.47,18.6,6.94c-6.4-9.88-13.73-18.87-21.3-27.64
		c-7.94-9.21-16.18-18.16-24.26-27.25c-4.22-4.74-3.78-7.51,1.61-10.74c10.35-6.2,21.37-10.86,32.88-14.4
		c7.39-2.28,8.12-2.05,12.78,4.6c0.53-3.03-0.27-6.17,2.41-7.96c2.3-1.53,5.01-1.63,7.62-2.13c36.85-7.09,73.53-5.83,110.05,2.26
		c6.17,1.37,12.18,3.42,18.25,5.2c5.81,1.71,7.17,4.58,4.22,10.09c-5.82,10.87-11.91,21.59-17.9,32.37
		c-1.94,3.49-3.89,6.99-5.9,10.45c-1.7,2.93-4.13,4.7-7.41,2.77c-3.1-1.82-2.62-4.79-1.14-7.48c6.45-11.66,12.86-23.35,19.57-34.87
		c2.22-3.81,1.7-5.04-2.63-6.23c-36.93-10.09-74.18-11.5-111.83-4.96c-3.67,0.64-4.8,2.26-4.5,5.66c0.54,6.13,0.92,12.28,1.48,18.41
		c0.29,3.15,0.33,6.35-3.15,7.58c-3.58,1.26-5.54-1.33-7-4.13c-3-5.76-6.05-11.5-8.83-17.37c-1.65-3.48-3.59-4.62-7.45-3.13
		c-6.37,2.48-12.65,5.11-18.84,8.01c-3.83,1.8-3.61,3.04-0.96,5.91c17.54,18.99,34.41,38.53,48.66,60.17
		c2.74,4.17,5.09,8.59,7.6,12.91c0.67,1.15,1.24,2.36,1.88,3.53c1.34,2.42,3.73,2.52,5.65,1.6c2.28-1.1,0.4-2.94-0.22-4.26
		c-3.07-6.47-6.29-12.87-9.44-19.31c-0.59-1.2-1.21-2.39-1.61-3.65c-0.89-2.82-0.58-5.41,2.39-6.8c3.01-1.4,5.28,0.02,6.62,2.66
		c3.77,7.43,7.91,14.74,10.86,22.49c2.67,7.04,6.76,9.68,14.23,9.24c10.8-0.65,21.65-0.46,32.47-0.45c3.91,0.01,6.07-1.76,7.55-5.22
		c1.63-3.82,3.64-7.49,5.58-11.18c1.43-2.71,3.42-4.82,6.78-3.3c3.51,1.6,3.5,4.5,2.09,7.6c-1.38,3.03-2.83,6.03-4.19,9.08
		c-0.44,0.99-1.43,2.26,0.03,3.06c1.28,0.7,2.61,0.25,3.48-1.05c0.37-0.55,0.69-1.14,1-1.73c14.06-27.12,34.66-48.76,57.68-68.28
		c3.54-3,3.5-4.54-0.26-6.7c-4.19-2.4-8.3-4.94-12.47-7.36c-2.8-1.63-4.39-3.94-2.85-7.02c1.6-3.2,4.52-2.94,7.36-1.65
		c7.78,3.54,14.96,8.06,21.4,13.69c4.98,4.34,4.93,7.66-0.39,11.8c-14.66,11.4-28.01,24.13-39.99,38.31c-0.62,0.74-1.16,1.55-2,2.69
		c2.26,0.55,3.52-0.73,4.89-1.36c9.83-4.56,20.15-6.84,30.97-6.77c2.15,0.02,4.3,0.4,6.44,0.7c3.04,0.42,5.1,2.03,4.77,5.26
		c-0.33,3.19-2.72,4.36-5.7,4.44c-5.49,0.15-10.98-0.35-16.46,0.53c-16.52,2.63-28.81,12.1-40.01,23.8
		c-4.85,5.07-6.79,10.34-6.57,17.35c0.5,15.98,0.3,31.99,0.15,47.99c-0.04,4.24,1.19,6.01,5.69,5.84
		c7.65-0.29,15.33-0.12,22.99-0.01c2.5,0.04,3.81-0.86,4.89-3.22c5.79-12.74,11.8-25.38,17.72-38.06c1.5-3.21,3.62-5.33,7.44-3.88
		c2.55,0.97,3.6-0.3,4.55-2.37c3.06-6.66,6.22-13.27,9.33-19.91c1.39-2.97,2.9-5.74,6.91-5.34c1.99,0.2,2.41-1.45,3.04-2.78
		c6.8-14.29,13.81-28.49,20.28-42.93c3.28-7.33,7.97-12.17,15.8-14.69c13.79-4.44,27.38-9.51,40.98-14.52
		c5.58-2.06,10.41-1.92,14.43,2.94C512,118.93,512,121.6,512,124.26z M249.49,270.52c-70.16,0-140.32,0-210.48,0
		c-8.52,0-8.39,0.02-9.4,8.44c-0.4,3.3,0.91,4.17,3.82,4.12c4.83-0.09,9.67-0.08,14.5-0.05c4.5,0.03,9.01-0.03,13.49,0.28
		c2.71,0.19,4.74,1.73,4.81,4.78c0.07,3.06-1.89,4.51-4.6,4.99c-1.62,0.29-3.32,0.27-4.98,0.28c-7.83,0.05-15.67,0.15-23.5,0.04
		c-3.25-0.05-4.94,0.91-5.03,4.47c-0.1,3.98-0.68,7.95-1.06,11.93c-2.89,30.31-5.87,60.62-8.61,90.95
		c-0.58,6.43-1.16,12.99,0.65,19.38c6.52,23.04,24.62,36.8,48.66,36.82c59,0.04,117.99,0.01,176.99,0.01
		c62.5,0,124.99,0.07,187.49-0.03c28.89-0.05,50.69-23.84,48.39-52.54c-0.44-5.47-1.28-10.91-1.78-16.38
		c-2.74-30.16-5.47-60.32-8.1-90.49c-0.26-2.94-1.48-4.18-4.35-4.17c-6.83,0.04-13.67,0.01-20.5,0c-2.97-0.01-3.66,1-1.77,3.51
		c2.61,3.47,4.77,7.24,6.44,11.26c3.06,7.38,0.91,15.66-5.31,20.69c-5.89,4.76-14.67,4.97-20.98,0.5
		c-6.53-4.63-9.15-12.77-6.47-20.38c1.34-3.79,3.42-7.2,5.64-10.55c0.87-1.31,2.96-2.5,2.06-4.2c-0.87-1.64-3.04-0.81-4.62-0.81
		c-30.33-0.04-60.66-0.03-90.99-0.04c-2.32,0-4.67,0.19-6.93-0.62c-2.07-0.75-3.43-2.1-3.48-4.38c-0.05-2.47,1.25-4.19,3.57-4.82
		c1.57-0.43,3.29-0.46,4.94-0.46c21-0.02,42,0,63,0c24.33,0,48.66,0.01,72.99-0.03c1.6,0,4.1,0.75,4.58-0.89
		c0.93-3.16,0.65-6.68-0.35-9.82c-0.85-2.66-3.68-1.74-5.72-1.74C391.48,270.52,320.49,270.53,249.49,270.52z M151.79,260.93
		c7.49,0,14.99-0.13,22.47,0.06c3.36,0.09,4.02-1.15,3.24-4.14c-6.73-25.75-13.42-51.51-20.06-77.28c-0.74-2.87-1.74-4.15-5.16-3.25
		c-13.83,3.64-27.74,6.99-41.64,10.36c-2.73,0.66-3.91,1.65-3.09,4.78c5.68,21.72,11.25,43.48,16.73,65.25
		c0.79,3.14,2.29,4.36,5.55,4.28C137.14,260.81,144.46,260.93,151.79,260.93z M501.62,122.53c-15.52,5.54-29.77,10.63-44.03,15.7
		c-2.83,1.01-4.79,2.85-6.08,5.57c-7.14,15.05-14.22,30.13-21.56,45.08c-1.8,3.67-0.82,5.18,2.64,6.7c7.77,3.42,15.48,7.02,23,10.96
		c3.8,1.99,5.57,1.7,7.47-2.47c7.4-16.21,15.22-32.23,22.87-48.33C490.99,145.07,496.02,134.39,501.62,122.53z M289,229.92
		c11.15,0,22.31-0.16,33.46,0.08c4.24,0.09,5.52-1.46,5.35-5.5c-0.26-5.98-0.38-12,0.03-17.97c0.35-5.13-1.86-6.43-6.42-5.87
		c-6.29,0.78-12.62,0.73-18.94,0.38c-15.8-0.86-31.62-0.15-47.43-0.4c-3.07-0.05-4.06,1.43-4.1,4.27
		c-0.1,6.82-0.24,13.64-0.57,20.45c-0.17,3.52,1.24,4.64,4.67,4.6C266.35,229.83,277.67,229.92,289,229.92z M61.25,260.15
		c2.83,0,5.66-0.06,8.48,0.02c2.91,0.08,3.89-0.96,2.96-3.92c-6.39-20.3-12.73-40.61-18.99-60.95c-0.93-3.04-2.29-3.99-5.43-2.79
		c-5.74,2.19-11.55,4.29-17.45,6c-3.95,1.14-4.32,2.84-2.86,6.46c5.97,14.8,11.56,29.76,17.46,44.6
		C50.45,262.15,47.28,260.06,61.25,260.15z M289.52,260.87c0,0.01,0,0.02,0,0.04c11.14,0,22.28-0.12,33.41,0.07
		c3.75,0.06,5.05-1.31,4.85-4.95c-0.22-3.98-0.16-7.98-0.02-11.97c0.11-3.1-0.91-4.52-4.26-4.5c-22.77,0.09-45.55,0.08-68.32,0.02
		c-2.96-0.01-4.28,1.18-4.23,4.12c0.07,3.99,0.18,7.99-0.01,11.97c-0.19,3.81,1.17,5.35,5.16,5.28
		C267.24,260.74,278.38,260.87,289.52,260.87z M145.13,165.59c-3.2-12.23-6.37-24.47-9.61-36.69c-0.53-2-1.99-2.4-3.92-1.89
		c-8.68,2.3-17.38,4.53-26.08,6.8c-2.21,0.57-3.59,1.68-2.92,4.27c2.97,11.6,5.91,23.21,8.89,34.81c0.5,1.96,1.43,3.25,3.91,2.58
		c9.16-2.45,18.35-4.78,27.52-7.16C144.3,167.96,145.54,167.45,145.13,165.59z M460.44,222.22c0.16-2.7-1.39-3.22-2.71-3.85
		c-11.89-5.65-23.8-11.25-35.67-16.93c-2.29-1.1-3.73-0.69-4.8,1.63c-2.37,5.15-4.78,10.27-7.25,15.37
		c-1.07,2.2-0.24,3.39,1.76,4.32c12.08,5.64,24.13,11.32,36.22,16.95c1.15,0.53,2.84,1.66,3.62,0.2
		C454.81,233.89,457.72,227.72,460.44,222.22z M9.35,140.83c1.04,7.03,0.73,14.06,2.74,20.84c0.7,2.35,1.6,3.05,3.81,2.27
		c7.37-2.57,14.75-5.12,22.13-7.65c1.72-0.59,2.52-1.5,1.69-3.34c-5.15-11.37-11.75-21.57-22.38-28.68
		c-2.97-1.98-4.33-1.14-5.37,2.01C10.38,131.07,10.1,136.05,9.35,140.83z M99.6,90.35c0.05,0,0.09-0.01,0.14-0.01
		c0.88,9.41,1.76,18.81,2.65,28.22c0.05,0.5,0.11,0.99,0.19,1.48c0.39,2.41,1.12,4.02,4.22,3.11c6.2-1.82,12.47-3.43,18.76-4.96
		c2.57-0.62,2.68-1.87,1.78-3.96c-3.94-9.14-7.85-18.3-11.68-27.49c-0.85-2.04-2.13-3.06-4.19-2.15c-3.92,1.72-9.11,0.29-11.89,4.78
		C99.43,89.6,99.59,90.02,99.6,90.35z M48.44,177.97c-0.83-2.68-2.13-6.46-3.16-10.31c-0.72-2.71-2.22-2.85-4.46-2.02
		c-4.06,1.5-8.17,2.87-12.24,4.34c-13.18,4.76-13.11,4.73-7.47,17.67c1.04,2.38,2.19,3.01,4.54,2.17
		c6.74-2.41,13.51-4.74,20.26-7.12C47.55,182.11,49.02,181.31,48.44,177.97z M441.76,314.14c-0.82-4.06-3.15-8.23-6.18-12.05
		c-0.82-1.04-1.67-0.7-2.43,0.26c-2.84,3.56-5.27,7.37-5.92,11.94c-0.59,4.1,2.47,7.45,6.64,7.74
		C438.31,322.32,441.78,319.23,441.76,314.14z M107.55,72.16c-0.85-3.21-1.73-6.73-2.72-10.23c-0.48-1.69-0.28-4.24-2.17-4.66
		c-2.28-0.51-3.61,1.9-5.15,3.32c-1.1,1.02-0.97,2.34-0.62,3.69c0.85,3.19,1.67,6.39,2.45,9.6c0.53,2.17,1.65,3.06,3.95,2.34
		C105.32,75.6,107.74,75.57,107.55,72.16z"/>
	<path class="st0" d="M249.5,314.03c33.64,0,67.29-0.01,100.93,0c8.7,0,9.88,1.14,9.88,9.75c0.01,19.99,0.05,39.97-0.06,59.96
		c-0.11,20.45-14.2,34.72-34.56,34.76c-50.47,0.11-100.93,0.13-151.4,0.04c-21.99-0.04-35.52-13.63-35.63-35.56
		c-0.1-20.15-0.03-40.31-0.01-60.46c0.01-7.2,1.25-8.47,8.41-8.48C181.21,314.02,215.36,314.03,249.5,314.03z M249.24,324.44
		c-31.66,0-63.32,0.07-94.99-0.08c-4.49-0.02-6.1,1.18-6.03,5.9c0.26,17.33,0.08,34.66,0.11,51.99
		c0.03,17.17,9.44,26.63,26.65,26.65c49.66,0.04,99.32,0.05,148.98,0c16.89-0.02,26-9.09,26.08-25.88c0.08-17.33-0.01-34.66,0-51.99
		c0-6.44-0.08-6.58-6.81-6.58C311.9,324.44,280.57,324.44,249.24,324.44z"/>
	<path class="st0" d="M464.27,143.02c4.1,0.52,7.69-0.95,11.02-3.4c2.7-1.98,5.61-2.63,7.85,0.5c2.3,3.22,0.33,5.63-2.21,7.59
		c-5.62,4.35-11.88,6.57-19.05,5.34c-3.28-0.56-6.51-1.6-5.97-5.81c0.48-3.8,3.52-4.39,6.77-4.23
		C463.17,143.04,463.66,143.02,464.27,143.02z"/>
</g>
</svg>
