<?xml version="1.0" encoding="utf-8"?>
<!-- Generator: Adobe Illustrator 23.0.0, SVG Export Plug-In . SVG Version: 6.00 Build 0)  -->
<svg version="1.1" id="Capa_1" xmlns="http://www.w3.org/2000/svg" xmlns:xlink="http://www.w3.org/1999/xlink" x="0px" y="0px"
	 viewBox="0 0 512 512" style="enable-background:new 0 0 512 512;" xml:space="preserve">
<style type="text/css">
	.st0{fill:#FF575A;}
</style>
<g>
	<g>
		<path class="st0" d="M256,148.04c-79.93,0-144.97,65.03-144.97,144.97c0,79.93,65.03,144.97,144.97,144.97
			c37.58,0,73.2-14.32,100.32-40.32c3.03-2.91,3.13-7.72,0.23-10.75c-2.91-3.03-7.72-3.13-10.75-0.23
			c-24.27,23.27-56.16,36.08-89.79,36.08c-71.55,0-129.76-58.21-129.76-129.76c0-71.55,58.21-129.76,129.76-129.76
			c71.55,0,129.76,58.21,129.76,129.76c0,27.77-8.65,54.26-25,76.59c-2.48,3.39-1.75,8.15,1.64,10.63
			c3.39,2.48,8.15,1.75,10.63-1.64c18.28-24.96,27.94-54.55,27.94-85.58C400.97,213.07,335.93,148.04,256,148.04z"/>
	</g>
</g>
<g>
	<g>
		<path class="st0" d="M256,188.27c-57.75,0-104.74,46.98-104.74,104.74S198.25,397.74,256,397.74s104.74-46.98,104.74-104.73
			S313.75,188.27,256,188.27z M256,382.54c-49.37,0-89.53-40.16-89.53-89.53s40.16-89.53,89.53-89.53
			c49.37,0,89.53,40.16,89.53,89.53S305.36,382.54,256,382.54z"/>
	</g>
</g>
<g>
	<g>
		<path class="st0" d="M256,254.02c-21.5,0-38.99,17.49-38.99,38.99S234.5,332,256,332s38.99-17.49,38.99-38.99
			S277.5,254.02,256,254.02z M256,316.79c-13.11,0-23.78-10.67-23.78-23.78s10.67-23.78,23.78-23.78s23.78,10.67,23.78,23.78
			S269.11,316.79,256,316.79z"/>
	</g>
</g>
<g>
	<g>
		<path class="st0" d="M365.1,70.47h-59.75c-12.04,0-21.83,9.79-21.83,21.83v15.65c0,12.04,9.79,21.83,21.83,21.83h59.75v0
			c12.04,0,21.83-9.79,21.83-21.83V92.3C386.93,80.26,377.14,70.47,365.1,70.47z M371.72,107.95c0,3.65-2.97,6.62-6.62,6.62h-59.75
			c-3.65,0-6.62-2.97-6.62-6.62V92.3c0-3.65,2.97-6.62,6.62-6.62h59.75c3.65,0,6.62,2.97,6.62,6.62V107.95z"/>
	</g>
</g>
<g>
	<g>
		<path class="st0" d="M102.05,370.56c-19.35,0-35.1,15.74-35.1,35.1s15.74,35.1,35.1,35.1s35.1-15.74,35.1-35.1
			S121.4,370.56,102.05,370.56z M102.05,425.54c-10.97,0-19.89-8.92-19.89-19.89s8.92-19.89,19.89-19.89s19.89,8.92,19.89,19.89
			S113.02,425.54,102.05,425.54z"/>
	</g>
</g>
<g>
	<g>
		<path class="st0" d="M512,219.43v-56.68c0-22.37-18.2-40.57-40.57-40.57h-24.64c-10.8,0-20.43-6.86-23.97-17.06l-12.04-34.74
			c-5.66-16.32-21.06-27.28-38.34-27.28h-161.4c-4.2,0-7.6,3.4-7.6,7.6s3.4,7.6,7.6,7.6h161.4c10.8,0,20.43,6.85,23.97,17.06
			l12.04,34.74c5.66,16.32,21.06,27.29,38.34,27.29h24.64c13.99,0,25.37,11.38,25.37,25.37v49.15h-99.38c-4.2,0-7.6,3.4-7.6,7.6
			s3.4,7.6,7.6,7.6h99.38v201.22c0,13.99-11.38,25.37-25.37,25.37H40.58c-13.99,0-25.37-11.38-25.37-25.37V227.11h99.38
			c4.2,0,7.6-3.4,7.6-7.6s-3.4-7.6-7.6-7.6H15.21v-49.15c0-13.99,11.38-25.37,25.37-25.37h65.2c17.27,0,32.68-10.96,38.34-27.29
			l12.04-34.74c3.54-10.2,13.17-17.06,23.97-17.06h5.57c4.2,0,7.6-3.4,7.6-7.6s-3.4-7.6-7.6-7.6h-5.57
			c-17.27,0-32.68,10.96-38.34,27.28l-12.04,34.74c-3.54,10.2-13.17,17.06-23.97,17.06h-65.2C18.2,122.18,0,140.38,0,162.75v265.57
			c0,22.37,18.2,40.57,40.58,40.57h430.85c22.37,0,40.58-18.2,40.58-40.57V219.57c0-0.02,0-0.05,0-0.07S512,219.46,512,219.43z"/>
	</g>
</g>
<g>
	<g>
		<path class="st0" d="M105.7,55.27H47.65c-4.2,0-7.6,3.4-7.6,7.6v44.86c0,4.2,3.4,7.6,7.6,7.6s7.6-3.4,7.6-7.6V70.48h42.83v37.26
			c0,4.2,3.4,7.6,7.6,7.6s7.6-3.4,7.6-7.6V62.87C113.3,58.67,109.9,55.27,105.7,55.27z"/>
	</g>
</g>
</svg>
