<?xml version="1.0" encoding="utf-8"?>
<!-- Generator: Adobe Illustrator 23.0.0, SVG Export Plug-In . SVG Version: 6.00 Build 0)  -->
<svg version="1.1" id="Capa_1" xmlns="http://www.w3.org/2000/svg" xmlns:xlink="http://www.w3.org/1999/xlink" x="0px" y="0px"
	 viewBox="0 0 512 512" style="enable-background:new 0 0 512 512;" xml:space="preserve">
<style type="text/css">
	.st0{fill:#FF575A;}
</style>
<g>
	<g>
		<path class="st0" d="M275.7,153.16l45.96-38.3c0,0,0.01,0,0.01-0.01l0.03-0.02c0.15-0.12,0.29-0.25,0.42-0.39
			c0.03-0.03,0.06-0.05,0.09-0.08c0.17-0.17,0.33-0.35,0.48-0.53c0.02-0.02,0.04-0.05,0.05-0.07c0.13-0.16,0.25-0.32,0.37-0.49
			c0.05-0.07,0.08-0.14,0.13-0.2c0.08-0.13,0.16-0.26,0.24-0.39c0.05-0.09,0.1-0.19,0.14-0.28c0.06-0.11,0.11-0.23,0.17-0.34
			c0.05-0.11,0.09-0.22,0.13-0.33c0.04-0.11,0.08-0.22,0.12-0.33c0.04-0.11,0.07-0.23,0.11-0.35c0.03-0.11,0.06-0.23,0.09-0.34
			c0.03-0.11,0.05-0.23,0.07-0.34c0.02-0.13,0.04-0.26,0.06-0.39c0.01-0.1,0.03-0.2,0.04-0.31c0.02-0.17,0.02-0.34,0.02-0.51
			c0-0.06,0.01-0.11,0.01-0.17c0-0.01,0-0.03,0-0.04c0-0.25-0.01-0.49-0.04-0.73c0-0.03-0.01-0.06-0.01-0.08
			c-0.02-0.21-0.05-0.42-0.1-0.62c-0.02-0.1-0.05-0.19-0.07-0.29c-0.03-0.13-0.06-0.26-0.1-0.4c-0.03-0.11-0.07-0.22-0.11-0.34
			c-0.04-0.11-0.08-0.22-0.12-0.33c-0.05-0.12-0.1-0.24-0.15-0.35c-0.05-0.1-0.09-0.2-0.14-0.29c-0.06-0.12-0.13-0.23-0.19-0.35
			c-0.03-0.05-0.05-0.11-0.09-0.16l-18.67-30.42c-1.38-2.25-3.84-3.63-6.48-3.63h-11.75c0,0,0,0,0,0l-72.58,0
			c-2.64,0-5.1,1.37-6.48,3.63l-18.66,30.41c-0.03,0.05-0.06,0.11-0.09,0.16c-0.07,0.11-0.13,0.23-0.19,0.35
			c-0.05,0.1-0.1,0.19-0.14,0.29c-0.05,0.12-0.11,0.23-0.15,0.35c-0.04,0.11-0.08,0.22-0.12,0.33c-0.04,0.11-0.08,0.22-0.11,0.34
			c-0.04,0.13-0.07,0.26-0.1,0.4c-0.02,0.1-0.05,0.19-0.07,0.29c-0.04,0.21-0.07,0.41-0.1,0.62c0,0.03-0.01,0.06-0.01,0.08
			c-0.02,0.25-0.04,0.49-0.04,0.73c0,0.01,0,0.03,0,0.04c0,0.06,0.01,0.11,0.01,0.17c0,0.17,0.01,0.34,0.02,0.51
			c0.01,0.1,0.02,0.2,0.04,0.31c0.02,0.13,0.04,0.26,0.06,0.39c0.02,0.11,0.05,0.23,0.07,0.34c0.03,0.11,0.06,0.23,0.09,0.34
			c0.03,0.12,0.07,0.23,0.1,0.35c0.04,0.11,0.08,0.22,0.12,0.33c0.04,0.11,0.08,0.22,0.13,0.33c0.05,0.12,0.11,0.23,0.16,0.34
			c0.05,0.09,0.09,0.19,0.14,0.28c0.07,0.13,0.16,0.26,0.24,0.39c0.04,0.07,0.08,0.14,0.13,0.2c0.12,0.17,0.24,0.33,0.37,0.49
			c0.02,0.02,0.04,0.05,0.05,0.07c0.15,0.18,0.31,0.36,0.49,0.53c0.03,0.03,0.06,0.05,0.09,0.08c0.14,0.13,0.27,0.26,0.42,0.39
			l0.03,0.02c0,0,0.01,0,0.01,0.01l45.96,38.3c-90,9.84-160.26,86.3-160.26,178.88C76.04,431.27,156.77,512,256,512
			s179.96-80.73,179.96-179.96C435.96,239.47,365.7,163.01,275.7,153.16z M263.6,143.45v-26.85h32.23L263.6,143.45z M289.57,86.18
			h4.34l9.33,15.21h-28.88L289.57,86.18z M268.06,86.18L256,98.24l-12.06-12.06H268.06z M218.09,86.18h4.35l15.21,15.21h-28.88
			L218.09,86.18z M216.17,116.59h32.22v26.85L216.17,116.59z M256,496.79c-90.85,0-164.75-73.91-164.75-164.75
			S165.15,167.29,256,167.29s164.75,73.91,164.75,164.75S346.85,496.79,256,496.79z"/>
	</g>
</g>
<g>
	<g>
		<path class="st0" d="M393.79,273.83c-3.75-8.86-8.39-17.41-13.79-25.41c-5.35-7.92-11.5-15.36-18.26-22.13
			c-6.77-6.76-14.21-12.91-22.13-18.26c-8-5.39-16.55-10.04-25.4-13.79c-18.44-7.8-38.03-11.75-58.22-11.75s-39.77,3.95-58.21,11.75
			c-8.86,3.75-17.41,8.4-25.41,13.79c-7.92,5.35-15.36,11.5-22.13,18.26c-6.76,6.77-12.91,14.21-18.26,22.13
			c-5.39,8-10.04,16.55-13.79,25.41c-7.8,18.43-11.75,38.02-11.75,58.21c0,29.21,8.43,57.52,24.36,81.84
			c7.68,11.74,16.98,22.34,27.62,31.51c10.71,9.22,22.62,16.86,35.41,22.71c9.55,4.37,19.6,7.73,29.86,9.99
			c10.54,2.32,21.4,3.5,32.28,3.5h0.03c11.07,0,22.12-1.22,32.84-3.62c10.42-2.34,20.61-5.82,30.3-10.34
			c9.51-4.43,18.59-9.9,26.99-16.25c8.33-6.31,16.02-13.51,22.86-21.39c2.75-3.17,2.4-7.98-0.76-10.73
			c-1.38-1.21-3.15-1.86-4.98-1.86c-2.2,0-4.3,0.95-5.74,2.62l-0.01,0.01c-6.16,7.1-13.08,13.57-20.56,19.23
			c-7.54,5.71-15.69,10.61-24.23,14.6c-8.71,4.07-17.86,7.19-27.22,9.29c-9.62,2.15-19.56,3.24-29.51,3.24
			c-19.4,0-38.13-4.05-55.64-12.02c-0.06-0.03-0.12-0.06-0.18-0.08c0-0.01-0.01-0.01-0.02-0.01c-11.49-5.26-22.18-12.13-31.79-20.41
			c-9.56-8.23-17.91-17.75-24.82-28.3c-14.32-21.85-21.88-47.28-21.88-73.51c0-18.15,3.55-35.74,10.55-52.29
			c6.76-15.99,16.44-30.35,28.79-42.7c12.35-12.35,26.71-22.03,42.69-28.79c16.56-7.01,34.15-10.55,52.29-10.55
			c18.15,0,35.74,3.55,52.28,10.55c15.99,6.76,30.36,16.44,42.7,28.79c12.35,12.35,22.03,26.72,28.79,42.7
			c7.01,16.55,10.55,34.14,10.55,52.29c0,11.45-1.44,22.81-4.28,33.78c-2.76,10.64-6.83,20.94-12.13,30.6
			c-0.97,1.78-1.2,3.84-0.63,5.79c0.58,1.95,1.87,3.56,3.65,4.53c1.11,0.61,2.38,0.93,3.64,0.93c2.79,0,5.34-1.51,6.68-3.95
			c5.89-10.76,10.43-22.22,13.5-34.09c3.16-12.22,4.77-24.87,4.77-37.59C405.54,311.85,401.59,292.27,393.79,273.83z"/>
	</g>
</g>
<g>
	<g>
		<path class="st0" d="M256,0c-4.2,0-7.6,3.4-7.6,7.6v30.42c0,4.2,3.4,7.6,7.6,7.6c4.2,0,7.6-3.4,7.6-7.6V7.6
			C263.6,3.4,260.2,0,256,0z"/>
	</g>
</g>
<g>
	<g>
		<path class="st0" d="M201.75,50.52l-15.21-26.34c-2.1-3.64-6.75-4.88-10.39-2.78c-3.64,2.1-4.88,6.75-2.78,10.39l15.21,26.34
			c1.41,2.44,3.96,3.8,6.59,3.8c1.29,0,2.6-0.33,3.79-1.02C202.61,58.8,203.85,54.15,201.75,50.52z"/>
	</g>
</g>
<g>
	<g>
		<path class="st0" d="M335.84,21.39c-3.64-2.1-8.29-0.85-10.39,2.78l-15.21,26.34c-2.1,3.64-0.85,8.29,2.78,10.39
			c1.2,0.69,2.51,1.02,3.8,1.02c2.63,0,5.18-1.36,6.59-3.8l15.21-26.34C340.73,28.14,339.48,23.49,335.84,21.39z"/>
	</g>
</g>
</svg>
