<?xml version="1.0" encoding="utf-8"?>
<!-- Generator: Adobe Illustrator 16.0.0, SVG Export Plug-In . SVG Version: 6.00 Build 0)  -->
<!DOCTYPE svg PUBLIC "-//W3C//DTD SVG 1.1//EN" "http://www.w3.org/Graphics/SVG/1.1/DTD/svg11.dtd">
<svg version="1.1" id="Capa_1" xmlns="http://www.w3.org/2000/svg" xmlns:xlink="http://www.w3.org/1999/xlink" x="0px" y="0px"
	 width="1600px" height="1600px" viewBox="-80 -655 1600 1600" enable-background="new -80 -655 1600 1600" xml:space="preserve">
<g>
	<g>
		<path fill="#FF575A" d="M1029.654,338.613c-3.967,0-7.934-1.447-11.028-4.384l-185.54-174.063
			c-6.482-6.062-6.806-16.282-0.711-22.765c6.096-6.544,16.252-6.836,22.798-0.709l185.54,174.062
			c6.482,6.062,6.806,16.282,0.711,22.764C1038.231,336.903,1033.975,338.613,1029.654,338.613z"/>
		<path fill="#FF575A" d="M410.315,338.613c-4.29,0-8.581-1.71-11.772-5.095c-6.092-6.481-5.772-16.702,0.71-22.764l185.604-174.062
			c6.516-6.062,16.736-5.804,22.798,0.709c6.095,6.482,5.771,16.703-0.708,22.765L421.34,334.229
			C418.246,337.166,414.279,338.613,410.315,338.613z"/>
	</g>
	<path fill="#FF575A" d="M1139.387,500.454H300.613c-44.434,0-80.613-36.146-80.613-80.614V-129.85
		c0-44.466,36.18-80.614,80.613-80.614h838.773c44.434,0,80.613,36.148,80.613,80.614v549.693
		C1220,464.308,1183.82,500.454,1139.387,500.454z M300.613-178.219c-26.667,0-48.366,21.702-48.366,48.369v549.693
		c0,26.663,21.7,48.363,48.366,48.363h838.773c26.667,0,48.366-21.7,48.366-48.363V-129.85c0-26.667-21.699-48.369-48.366-48.369
		H300.613z"/>
	<path fill="#FF575A" d="M720,226.013c-21.444,0-42.888-7.126-59.203-21.347L246.765-156.517
		c-6.708-5.836-7.418-16.026-1.579-22.766c5.899-6.707,16.056-7.319,22.764-1.548l414.032,361.153
		c20.605,17.958,55.432,17.958,76.003,0l413.518-360.572c6.674-5.837,16.834-5.191,22.768,1.547
		c5.836,6.74,5.158,16.896-1.549,22.766L779.203,204.637C762.854,218.887,741.444,226.013,720,226.013z"/>
</g>
</svg>
