<?xml version="1.0" encoding="utf-8"?>
<!-- Generator: Adobe Illustrator 16.0.0, SVG Export Plug-In . SVG Version: 6.00 Build 0)  -->
<!DOCTYPE svg PUBLIC "-//W3C//DTD SVG 1.1//EN" "http://www.w3.org/Graphics/SVG/1.1/DTD/svg11.dtd">
<svg version="1.1" id="Capa_1" xmlns="http://www.w3.org/2000/svg" xmlns:xlink="http://www.w3.org/1999/xlink" x="0px" y="0px"
	 width="1600px" height="1392.957px" viewBox="-80 -794.5 1600 1392.957" enable-background="new -80 -794.5 1600 1392.957"
	 xml:space="preserve">
<g>
	<path fill="#FF575A" d="M1144.242,193.186H295.757c-41.755,0-75.757-33.972-75.757-75.762v-575.726
		c0-41.789,34.001-75.758,75.757-75.758h848.485c41.757,0,75.758,33.969,75.758,75.758v575.726
		C1220,159.214,1185.999,193.186,1144.242,193.186z M295.757-503.757c-25.061,0-45.454,20.394-45.454,45.455v575.726
		c0,25.061,20.393,45.455,45.454,45.455h848.485c25.062,0,45.454-20.394,45.454-45.455v-575.726
		c0-25.062-20.393-45.455-45.454-45.455H295.757z"/>
	<path fill="#FF575A" d="M913.181,338.06H526.819c-8.364,0-15.153-6.785-15.153-15.15c0-8.36,6.789-15.15,15.153-15.15h386.362
		c8.365,0,15.153,6.79,15.153,15.15C928.334,331.274,921.546,338.06,913.181,338.06z"/>
	<path fill="#FF575A" d="M720,338.06c-8.365,0-15.15-6.785-15.15-15.15V178.031c0-8.365,6.785-15.153,15.15-15.153
		c8.364,0,15.149,6.788,15.149,15.153v144.878C735.149,331.305,728.364,338.06,720,338.06z"/>
</g>
</svg>
