<?xml version="1.0" encoding="utf-8"?>
<!-- Generator: Adobe Illustrator 23.0.0, SVG Export Plug-In . SVG Version: 6.00 Build 0)  -->
<svg version="1.1" id="Capa_1" xmlns="http://www.w3.org/2000/svg" xmlns:xlink="http://www.w3.org/1999/xlink" x="0px" y="0px"
	 viewBox="0 0 512 512" style="enable-background:new 0 0 512 512;" xml:space="preserve">
<style type="text/css">
	.st0{fill:#FF575A;}
</style>
<g>
	<g>
		<path class="st0" d="M407.33,172.22l-13.94-60.82c-0.93-4.05-4.96-6.57-9.01-5.65c-4.05,0.93-6.58,4.96-5.65,9.01l13.84,60.37
			l-43.94,321.83H163.37l-43.94-321.83l36.7-160.09h199.75l11.33,49.43c0.93,4.05,4.96,6.58,9.01,5.65
			c4.05-0.93,6.58-4.96,5.65-9.01L370.09,9.73C368.77,4,363.75,0,357.87,0H154.13c-5.88,0-10.9,4-12.22,9.73l-37.25,162.49
			c-0.34,1.48-0.41,2.99-0.2,4.49l44.3,324.45c0.84,6.18,6.18,10.84,12.42,10.84h189.64c6.23,0,11.57-4.66,12.42-10.84l44.3-324.45
			C407.74,175.21,407.67,173.7,407.33,172.22z"/>
	</g>
</g>
<g>
	<g>
		<path class="st0" d="M368.24,183.68L341.35,61.56c-1.26-5.7-6.4-9.84-12.24-9.84H182.89c-5.84,0-10.98,4.14-12.24,9.84
			l-26.89,122.12c-0.3,1.37-0.37,2.77-0.21,4.17l15.3,129.56c0.49,4.13,4.23,7.08,8.35,6.59c4.12-0.49,7.07-4.23,6.59-8.35
			L158.54,186.5l26.37-119.74h142.18l26.37,119.74l-31.87,269.77H190.41l-10.35-87.64c-0.49-4.13-4.22-7.07-8.35-6.59
			c-4.12,0.49-7.07,4.23-6.59,8.35l10.61,89.86c0.74,6.31,6.1,11.06,12.45,11.06h135.64c6.35,0,11.7-4.76,12.45-11.06l32.18-272.4
			C368.61,186.45,368.54,185.05,368.24,183.68z"/>
	</g>
</g>
<g>
	<g>
		<path class="st0" d="M314.34,166.85h-34.75v-24.9c0-6.91-5.62-12.53-12.53-12.53h-22.13c-6.91,0-12.53,5.62-12.53,12.53v24.9
			h-34.75c-6.91,0-12.53,5.62-12.53,12.53v22.13c0,6.91,5.62,12.53,12.53,12.53h34.75v92.17c0,6.91,5.62,12.53,12.53,12.53h22.13
			c6.91,0,12.53-5.62,12.53-12.53v-92.17h34.75c6.91,0,12.53-5.62,12.53-12.53v-22.13C326.88,172.47,321.25,166.85,314.34,166.85z
			 M311.84,199h-39.76c-4.15,0-7.52,3.37-7.52,7.52v97.18h-17.11v-97.18c0-4.15-3.37-7.52-7.52-7.52h-39.76v-17.11h38.88
			c0.29,0.03,0.58,0.06,0.88,0.06c4.15,0,7.52-3.37,7.52-7.52v-29.97h17.11v29.97c0,4.15,3.37,7.52,7.52,7.52
			c0.3,0,0.59-0.02,0.88-0.06h38.88V199z"/>
	</g>
</g>
</svg>
