<?xml version="1.0" encoding="utf-8"?>
<!-- Generator: Adobe Illustrator 23.0.0, SVG Export Plug-In . SVG Version: 6.00 Build 0)  -->
<svg version="1.1" id="Layer_1" xmlns="http://www.w3.org/2000/svg" xmlns:xlink="http://www.w3.org/1999/xlink" x="0px" y="0px"
	 viewBox="0 0 64 64" style="enable-background:new 0 0 64 64;" xml:space="preserve">
<style type="text/css">
	.st0{fill:#FF575A;}
</style>
<g id="Glasses_2_">
	<path class="st0" d="M47.4,26.26c-0.53-0.04-1.03,0.37-1.08,0.92c-0.04,0.55,0.37,1.03,0.92,1.08c2.66,0.21,4.02,1.59,4.41,4.45
		c0.07,0.5,0.5,0.87,0.99,0.87c0.04,0,0.09,0,0.13-0.01c0.55-0.07,0.93-0.58,0.86-1.12C53.12,28.63,51.03,26.55,47.4,26.26z"/>
	<path class="st0" d="M16.65,26.26c-0.55-0.04-1.03,0.37-1.08,0.92c-0.04,0.55,0.37,1.03,0.92,1.08c2.66,0.21,4.02,1.59,4.41,4.45
		c0.07,0.5,0.5,0.87,0.99,0.87c0.04,0,0.09,0,0.13-0.01c0.55-0.07,0.93-0.58,0.86-1.12C22.37,28.63,20.28,26.55,16.65,26.26z"/>
	<path class="st0" d="M63,28.92h-4.96c-1.34-4.66-5.63-8.08-10.71-8.08c-4.34,0-8.1,2.5-9.95,6.13c-0.89-1.81-2.57-3.58-5.43-3.58
		c-2.86,0-4.54,1.77-5.43,3.58c-1.84-3.63-5.6-6.13-9.95-6.13c-5.08,0-9.37,3.42-10.71,8.08H1c-0.55,0-1,0.45-1,1s0.45,1,1,1h4.47
		C5.44,31.28,5.42,31.64,5.42,32c0,6.15,5,11.16,11.16,11.16c6.15,0,11.16-5,11.16-11.16c0-0.63-0.07-1.24-0.17-1.85
		c0.08-0.12,0.14-0.26,0.16-0.41c0.02-0.18,0.63-4.35,4.23-4.35c3.6,0,4.21,4.17,4.23,4.35c0.02,0.15,0.08,0.29,0.16,0.41
		c-0.1,0.6-0.17,1.22-0.17,1.85c0,6.15,5,11.16,11.16,11.16s11.16-5,11.16-11.16c0-0.36-0.02-0.72-0.05-1.08H63c0.55,0,1-0.45,1-1
		S63.55,28.92,63,28.92z M16.57,41.16c-5.05,0-9.16-4.11-9.16-9.16s4.11-9.16,9.16-9.16c5.05,0,9.16,4.11,9.16,9.16
		S21.62,41.16,16.57,41.16z M47.33,41.16c-5.05,0-9.16-4.11-9.16-9.16s4.11-9.16,9.16-9.16s9.16,4.11,9.16,9.16
		S52.37,41.16,47.33,41.16z"/>
</g>
</svg>
