<?xml version="1.0" encoding="utf-8"?>
<!-- Generator: Adobe Illustrator 23.0.0, SVG Export Plug-In . SVG Version: 6.00 Build 0)  -->
<svg version="1.1" id="Capa_1" xmlns="http://www.w3.org/2000/svg" xmlns:xlink="http://www.w3.org/1999/xlink" x="0px" y="0px"
	 viewBox="0 0 512 512" style="enable-background:new 0 0 512 512;" xml:space="preserve">
<style type="text/css">
	.st0{fill:#FF575A;}
</style>
<path class="st0" d="M413,513c-104,0-208,0-312,0c-14.53-3.84-23.12-13.35-27.59-27.54c-17.39-55.12-35.05-110.15-52.6-165.22
	c-0.76-2.38-1.6-4.75-2.07-7.2c-1.26-6.59,1.57-10.78,8.18-11.75c3.44-0.51,7-0.61,10.46-0.37c4.98,0.36,6.79-1.95,7.21-6.61
	c2.18-24.27,10.77-45.58,29.32-62.12c2.52-2.24,2.96-4.33,1.52-7.42c-3.98-8.58-5.64-17.68-5.82-27.14
	c-0.44-21.91,5.52-42.12,15.85-61.2c9.5-17.55,23.44-29.14,43.62-32.45c10.04-1.64,20.11-2.77,30.26-3.3
	c16.63-0.88,33.25-1.81,49.87-2.81c5.49-0.33,5.34-0.39,2.71-5.45c-11.04-21.15-11.12-42.21,1.39-62.76
	C223.06,13.64,237.86,4.73,256,1c6.67,0,13.33,0,20,0c2.09,0.56,4.19,1.08,6.26,1.7c20.4,6.07,35.04,18.99,41.56,39.08
	c2.97,9.16,7.24,13.54,16.02,17.33c33.59,14.49,58.38,39.24,75.95,71.01c13.26,23.98,18.14,49.55,10.86,76.64
	c-1.73,6.44-1.71,6.4,4.67,8.89c13.7,5.36,26.12,12.56,34.86,24.88c11.59,16.33,13.14,34.89,11.57,53.99
	c-0.38,4.56,0.59,6.3,5.38,6.44c11.3,0.33,14.47,5.1,11.02,15.97c-17.8,56.01-35.76,111.98-53.36,168.05
	C436.25,499.38,427.67,509.03,413,513z M347.62,300.97c33.16,0,66.32,0,99.48,0c12.02,0,12.61,0.03,13.14-11.99
	c1.12-25.72-4.46-44.16-34.02-56.26c-10.23-4.19-21.01-6.43-31.81-8.45c-50.72-9.5-101.85-16.69-152.41-27.04
	c-33.61-6.88-67.23-13.86-99.16-26.92c-13.79-5.64-27.14-12.23-36.89-24.02c-2.68-3.24-3.78-3.31-5.72,0.42
	c-8.52,16.41-13.48,33.7-12.8,52.29c0.46,12.49,4.62,23.32,14.82,31.47c8.09,6.48,16.5,12.42,25.42,17.66
	c33.55,19.72,69.08,35.34,104.85,50.45c4.09,1.73,8.21,2.42,12.62,2.42C279.29,300.94,313.46,300.97,347.62,300.97z M266.1,407.31
	c0,27.32,0.07,54.65-0.07,81.97c-0.02,4.59,1.26,6.71,6.24,6.51c7.98-0.33,15.99-0.24,23.99-0.09c3.74,0.07,5.41-1.12,5.48-5.12
	c0.15-8.82,0.67-17.64,1.13-26.45c0.39-7.48,0.61-14.98,1.5-22.4c0.6-4.96,4.67-7.92,9-7.66c4.65,0.29,7.88,3.89,8.14,9.1
	c0.04,0.83-0.02,1.66-0.03,2.5c-0.13,14.83-0.88,29.63-2.04,44.4c-0.32,4.09,1.03,5.85,5.27,5.68c5.16-0.22,10.35-0.37,15.49,0.04
	c4.99,0.4,6.78-1.77,7.36-6.39c2.62-20.63,5.4-41.25,8.18-61.86c0.96-7.09,1.93-14.19,3.21-21.22c0.94-5.14,4.98-8.08,9.59-7.55
	c4.66,0.54,7.75,4.21,7.82,9.41c0.02,1.33-0.09,2.67-0.27,3.98c-3.53,25.38-7.1,50.75-10.6,76.14c-1.02,7.38-0.95,7.39,6.67,7.36
	c1.5-0.01,3.02-0.16,4.5,0.02c4.55,0.53,6.36-1.53,7.34-5.96c8.16-36.72,16.56-73.4,24.92-110.08c0.81-3.57,1.56-7.18,2.82-10.6
	c1.63-4.44,5.63-6.53,9.95-5.53c4.53,1.06,6.73,4.11,6.66,8.69c-0.03,1.98-0.35,3.98-0.78,5.91
	c-8.43,37.35-16.91,74.68-25.34,112.03c-1.11,4.92-0.14,6.02,4.9,5.43c8.92-1.04,13.74-6.66,16.3-14.8
	c5.95-18.9,11.94-37.79,17.95-56.67c10.55-33.16,21.08-66.34,31.75-99.46c1.25-3.89,0.75-5.54-3.72-5.44
	c-7.66,0.18-15.33,0.19-22.99-0.1c-4.21-0.16-5.98,1.63-6.7,5.55c-0.87,4.74-1.93,9.47-3.33,14.08c-1.49,4.92-5.97,7.43-10.4,6.33
	c-4.56-1.14-7.33-5.28-6.57-10.31c0.57-3.78,1.48-7.51,2.36-11.23c0.71-2.99-0.18-4.39-3.41-4.36c-8.5,0.08-16.99,0.08-25.49,0
	c-3.13-0.03-4.42,1.44-4.79,4.44c-0.8,6.61-1.83,13.18-2.75,19.77c-1.36,9.72-2.59,19.47-4.12,29.16c-0.87,5.5-4.77,8.49-9.71,8
	c-4.78-0.47-7.87-4.38-7.76-9.92c0.03-1.33,0.25-2.65,0.42-3.97c1.85-14.02,3.56-28.07,5.66-42.05c0.68-4.52-1.02-5.52-5.03-5.47
	c-10.66,0.14-21.33,0.15-31.99-0.02c-4.13-0.07-5.42,1.62-5.59,5.63c-1.17,27.11-2.54,54.21-3.86,81.31
	c-0.3,6.1-3.88,10.12-8.91,10.07c-5.03-0.05-8.75-4.17-8.69-10.2c0.06-6.32,0.54-12.64,0.84-18.95c0.97-20.62,1.86-41.25,2.99-61.86
	c0.24-4.32-1.03-6.08-5.5-6c-10.33,0.19-20.66,0.06-30.99,0.06c-6.64,0.01-6.98,0.36-6.98,7.15
	C266.1,353.33,266.1,380.32,266.1,407.31z M411.74,181.86c0.34-10.49-1.78-20.56-5.61-30.23c-11.24-28.37-30.83-49.89-55.7-66.92
	c-6.59-4.51-13.58-8.44-21.15-11.19c-2.49-0.9-4.61-1.3-6.29,1.74c-6.83,12.4-17.77,20.04-30.43,25.49
	c-22.69,9.77-46.91,12.41-71.12,14.39c-24.53,2.01-49.17,2.72-73.74,4.32c-8.62,0.56-17.23,1.88-25.41,4.95
	c-5.35,2.02-6.19,4.75-3.27,9.67c2.01,3.38,4.99,5.75,8.2,7.9c19.6,13.06,41.89,19.58,64.25,25.46
	c69.64,18.32,141.15,26.92,211.73,40.41c3.26,0.62,4.5-0.47,5.35-3.37C410.7,197.09,411.97,189.59,411.74,181.86z M247.9,407.59
	c0-27.32-0.07-54.63,0.07-81.95c0.02-4.59-1.3-6.67-6.24-6.55c-10.65,0.26-21.32,0.18-31.98,0.04c-4.15-0.06-5.56,1.54-5.33,5.68
	c1.35,23.93,2.62,47.86,3.75,71.79c1.47,31.26,2.86,62.51,4.08,93.78c0.17,4.25,1.82,5.47,5.75,5.38
	c7.32-0.18,14.66-0.04,21.98-0.05c7.9-0.01,7.92-0.02,7.92-8.17C247.91,460.89,247.91,434.24,247.9,407.59z M165.15,319.18
	c-5.66,0-11.33,0.09-16.99-0.03c-3.53-0.07-4.64,1.2-4.11,4.82c2.38,16.46,4.52,32.95,6.75,49.44c3.55,26.21,7.1,52.41,10.65,78.62
	c1.72,12.69,3.5,25.37,5.15,38.08c0.51,3.9,2.04,5.97,6.41,5.68c5.14-0.33,10.32-0.04,15.48-0.1c5.71-0.07,6.23-0.85,5.97-6.39
	c-1.65-34.24-3.19-68.48-4.8-102.72c-0.98-20.94-2.06-41.88-2.99-62.83c-0.15-3.5-1.82-4.64-5.04-4.59
	C176.14,319.25,170.64,319.19,165.15,319.18z M108.58,319.17c0,0.03,0,0.05,0,0.08c-1.83,0-3.66,0-5.5,0c-1.83,0-3.66-0.01-5.5-0.01
	c-6.09,0-6.19,0.14-4.79,6.29c11.96,52.73,23.87,105.47,35.91,158.18c3.17,13.9,0.21,11.76,15.87,12.04
	c3.5,0.06,4.77-1.02,4.25-4.66c-1.99-13.83-3.75-27.68-5.64-41.52c-3.19-23.4-6.42-46.79-9.61-70.19
	c-2.42-17.8-4.91-35.59-7.12-53.41c-0.62-5.04-2.5-7.51-7.9-6.86C115.28,319.5,111.91,319.17,108.58,319.17z M56.32,319.17
	c-3,0-6,0-8.99,0c-8.16,0.01-8.13,0.01-5.73,7.54c8.39,26.33,16.75,52.66,25.13,78.98c7.92,24.9,15.88,49.79,23.75,74.71
	c2.43,7.69,6.69,13.33,15.08,14.93c6.06,1.15,7.38-0.09,6.05-5.94c-5.65-24.99-11.34-49.97-17-74.96
	c-6.73-29.7-13.51-59.38-20.08-89.11c-1-4.51-2.87-6.7-7.71-6.21C63.34,319.45,59.82,319.17,56.32,319.17z M221.85,64.02
	c0.51,11.14,4.71,21.26,11.72,28.47c1.94,2,3.93,3.38,6.99,2.92c10.38-1.54,20.76-3.03,30.88-5.9c10.16-2.89,19.98-6.62,28.17-13.53
	c5.84-4.93,10.89-10.56,9.91-19.07c-2.63-22.91-24.18-40.51-47-38.48C238.72,20.55,220.78,40.66,221.85,64.02z M190.3,299.85
	c-2.91-1.35-5.56-2.57-8.21-3.81c-31.24-14.59-62.42-29.28-89.76-50.74c-2.81-2.2-4.67-1.26-6.93,0.7
	c-14.56,12.66-20.88,29.29-22.99,47.86c-0.74,6.49,0.07,7.09,6.78,7.09c38.79,0.02,77.58,0.02,116.36-0.02
	C186.98,300.94,188.53,301.45,190.3,299.85z"/>
<path class="st0" d="M338.37,230.26c21.52,3.55,43.48,7.3,65.03,13.11c9.48,2.56,18.91,5.28,27.3,10.68
	c7.07,4.55,10.93,11.06,11.66,19.35c0.45,5.13-2.18,8.73-6.64,9.73c-4.16,0.92-8.74-1.06-9.91-5.57
	c-2.13-8.21-8.37-11.06-15.28-13.46c-11.18-3.88-22.69-6.54-34.29-8.76c-12.73-2.45-25.49-4.75-38.24-7.13
	c-1.3-0.24-2.62-0.55-3.85-1.02c-4.62-1.74-7.07-5.94-6.02-10.16C329.22,232.6,333.01,229.97,338.37,230.26z"/>
<path class="st0" d="M286.54,221.76c4.57,0.8,10.36,1.56,16.02,2.89c5.43,1.28,8.2,5.62,7.17,10.26c-1.06,4.75-5.31,7.61-10.6,6.9
	c-5.44-0.73-10.88-1.51-16.27-2.54c-5.52-1.05-8.64-5.05-7.97-9.72C275.61,224.5,279.66,221.46,286.54,221.76z"/>
<path class="st0" d="M389.46,174.32c0,1,0.04,2-0.01,2.99c-0.26,4.86-3.43,8.38-7.89,8.79c-4.1,0.37-7.91-2.39-9.06-6.93
	c-0.65-2.55-0.71-5.25-1.17-7.86c-1.47-8.25-4.41-15.97-8.27-23.4c-2.97-5.7-1.7-11.1,2.83-13.52c4.81-2.57,9.87-0.5,13.13,5.36
	C384.49,149.6,389.13,165.01,389.46,174.32z"/>
<path class="st0" d="M356.43,115.47c-0.07,6.49-6.49,10.7-12.26,7.67c-5.3-2.78-10.01-6.6-14.1-10.96c-2.9-3.1-3.15-6.97-0.54-10.51
	c2.37-3.21,5.73-4.99,9.57-3.24c6.24,2.84,11.45,7.25,16.04,12.33C356.31,112.04,356.47,113.78,356.43,115.47z"/>
<path class="st0" d="M292.29,60.99c0.06,5.47-2.97,9.37-7.77,10.01c-4.38,0.58-8.79-2.46-9.66-7.5c-1.07-6.16-4.43-9.19-10.44-10.33
	c-4.92-0.93-7.61-4.94-7.13-9.37c0.5-4.63,4.3-7.88,9.35-7.98C279.55,35.56,292.13,47.89,292.29,60.99z"/>
</svg>
