<?xml version="1.0" encoding="utf-8"?>
<!-- Generator: Adobe Illustrator 16.0.0, SVG Export Plug-In . SVG Version: 6.00 Build 0)  -->
<!DOCTYPE svg PUBLIC "-//W3C//DTD SVG 1.1//EN" "http://www.w3.org/Graphics/SVG/1.1/DTD/svg11.dtd">
<svg version="1.1" id="Capa_1" xmlns="http://www.w3.org/2000/svg" xmlns:xlink="http://www.w3.org/1999/xlink" x="0px" y="0px"
	 width="1600px" height="1600px" viewBox="-80 -655 1600 1600" enable-background="new -80 -655 1600 1600" xml:space="preserve">
<g>
	<path fill="#FF575A" d="M1023.718,645.003c-41.608,0-91.858-10.426-147.122-31.28c-121.151-45.677-252.968-135.955-371.164-254.147
		C387.207,241.35,296.928,109.498,251.218-11.656c-41.538-110.156-41.639-200.567-0.236-241.938
		c5.954-5.954,12.008-12.343,18.265-18.937c37.773-39.723,80.456-84.425,137.03-82.406c38.982,1.615,76.755,25.832,115.434,73.963
		c114.292,142.144,62.763,192.797,3.128,251.524l-10.527,10.427c-9.755,9.754-28.186,54.926,143.287,226.397
		c55.967,55.971,103.694,96.937,141.838,121.725c24.018,15.608,66.97,39.221,84.595,21.596L894.626,340
		c58.657-59.5,109.314-110.86,251.355,3.33c48.131,38.68,72.316,76.419,73.93,115.469c2.32,56.543-42.717,99.323-82.474,137.062
		c-6.56,6.257-12.947,12.312-18.901,18.231C1097.984,634.679,1065.121,645.003,1023.718,645.003z M402.239-321.37
		c-40.194,0-76.486,38.211-108.608,72.014c-6.458,6.794-12.712,13.388-18.868,19.542c-30.843,30.811-27.714,111.77,7.937,206.318
		c44.063,116.781,131.615,244.392,246.547,359.324c114.898,114.864,242.441,202.419,359.257,246.445
		c94.548,35.723,175.51,38.746,206.285,7.971c6.155-6.152,12.745-12.408,19.541-18.834c34.544-32.83,73.728-70.03,72.014-111.302
		c-1.179-28.354-21.831-58.857-61.386-90.646c-118.36-95.186-151.459-61.585-206.35-5.921l-10.766,10.864
		c-26.236,26.272-68.852,20.453-126.701-17.154c-40.127-26.098-89.707-68.549-147.291-126.163
		C491.542,88.812,446.033,1.73,490.565-42.902l10.732-10.596c55.799-54.893,89.467-88.022-5.751-206.454
		c-31.853-39.521-62.329-60.172-90.683-61.384C403.99-321.37,403.115-321.37,402.239-321.37z"/>
</g>
</svg>
