<?xml version="1.0" encoding="utf-8"?>
<!-- Generator: Adobe Illustrator 23.0.0, SVG Export Plug-In . SVG Version: 6.00 Build 0)  -->
<svg version="1.1" id="Capa_1" xmlns="http://www.w3.org/2000/svg" xmlns:xlink="http://www.w3.org/1999/xlink" x="0px" y="0px"
	 viewBox="0 0 512 512" style="enable-background:new 0 0 512 512;" xml:space="preserve">
<style type="text/css">
	.st0{fill:#FF575A;}
</style>
<g>
	<g>
		<path class="st0" d="M457.72,126.92c-10.9-20.5-24.91-39.37-41.64-56.1C383.81,38.55,344.4,16.98,298.97,6.72
			c-47.14-10.65-99.5-8.63-155.64,6.02c-26,6.78-41.63,33.45-34.85,59.46c2.19,8.38,6.57,16.04,12.66,22.13
			c3.66,3.66,7.84,6.64,12.35,8.93L68.57,300.72c-1.29,3.94,0.85,8.17,4.78,9.47c0.78,0.26,1.57,0.38,2.34,0.38
			c3.15,0,6.08-2,7.12-5.16l64.93-197.48c6.63,1.1,13.51,0.86,20.19-0.89c14.07-3.67,27.86-6.31,40.98-7.85
			c4.11-0.48,7.06-4.21,6.57-8.32c-0.48-4.11-4.21-7.05-8.32-6.57c-13.81,1.62-28.29,4.4-43.02,8.24
			c-11.54,3.01-23.95-0.36-32.4-8.81c-4.21-4.21-7.24-9.51-8.75-15.31c-4.69-18,6.13-36.46,24.12-41.15
			c53.79-14.03,103.77-16.02,148.55-5.9c42.63,9.63,79.57,29.85,109.81,60.08c15.68,15.68,28.8,33.35,39,52.53
			c1.35,2.54,3.94,3.98,6.63,3.98c1.19,0,2.39-0.28,3.52-0.88C458.27,135.12,459.66,130.58,457.72,126.92z"/>
	</g>
</g>
<g>
	<g>
		<path class="st0" d="M212.76,225.04c-8.38-8.38-19.53-13-31.38-13s-23,4.62-31.38,13c-17.3,17.31-17.3,45.46,0,62.77
			c8.38,8.38,19.53,13,31.38,13c11.85,0,23-4.62,31.38-13s13-19.53,13-31.38C225.76,244.57,221.14,233.43,212.76,225.04z
			 M202.15,277.2c-5.55,5.55-12.93,8.61-20.78,8.61c-7.85,0-15.23-3.06-20.78-8.61c-11.46-11.46-11.46-30.1,0-41.55
			c5.55-5.55,12.93-8.61,20.78-8.61s15.23,3.06,20.78,8.61c5.55,5.55,8.61,12.93,8.61,20.78
			C210.75,264.27,207.7,271.65,202.15,277.2z"/>
	</g>
</g>
<g>
	<g>
		<path class="st0" d="M282.99,166.57h-40.94c-9.71,0-17.62,7.9-17.62,17.62c0,9.71,7.9,17.62,17.62,17.62h40.94
			c9.71,0,17.62-7.9,17.62-17.62C300.61,174.47,292.71,166.57,282.99,166.57z M282.99,186.8h-40.94c-1.44,0-2.62-1.17-2.62-2.62
			s1.17-2.62,2.62-2.62h40.94c1.44,0,2.62,1.17,2.62,2.62S284.44,186.8,282.99,186.8z"/>
	</g>
</g>
<g>
	<g>
		<path class="st0" d="M153.18,366.48l-4.16-40.72c-0.48-4.68-2.75-8.9-6.4-11.87c-3.65-2.97-8.24-4.34-12.92-3.87
			c-9.66,0.99-16.72,9.65-15.73,19.32l4.16,40.72c0.48,4.68,2.75,8.9,6.4,11.87c3.17,2.58,7.06,3.96,11.09,3.96
			c0.6,0,1.21-0.03,1.82-0.09c4.68-0.48,8.9-2.75,11.87-6.4C152.29,375.74,153.66,371.16,153.18,366.48z M137.68,369.92
			c-0.26,0.31-0.82,0.86-1.76,0.95c-0.93,0.1-1.6-0.32-1.92-0.57c-0.31-0.26-0.85-0.82-0.95-1.76l-4.16-40.72
			c-0.1-0.94,0.32-1.6,0.57-1.92c0.26-0.31,0.82-0.86,1.76-0.95c0.09-0.01,0.19-0.01,0.27-0.01c0.79,0,1.36,0.36,1.64,0.59
			c0.31,0.26,0.85,0.82,0.95,1.76l4.16,40.72C138.35,368.94,137.94,369.61,137.68,369.92z"/>
	</g>
</g>
<g>
	<g>
		<path class="st0" d="M223.87,121.58l-1.06-1.06c-2.93-2.93-7.68-2.93-10.61,0c-2.93,2.93-2.93,7.68,0,10.61l1.06,1.06
			c1.46,1.46,3.38,2.2,5.3,2.2c1.92,0,3.84-0.73,5.3-2.2C226.8,129.26,226.8,124.51,223.87,121.58z"/>
	</g>
</g>
<g>
	<g>
		<path class="st0" d="M196.98,142.8l-1.06-1.06c-2.93-2.93-7.68-2.93-10.61,0c-2.93,2.93-2.93,7.68,0,10.61l1.06,1.06
			c1.46,1.46,3.38,2.2,5.3,2.2c1.92,0,3.84-0.73,5.3-2.2C199.91,150.48,199.91,145.73,196.98,142.8z"/>
	</g>
</g>
<g>
	<g>
		<path class="st0" d="M215.82,321.41l-1.06-1.06c-2.93-2.93-7.68-2.93-10.61,0c-2.93,2.93-2.93,7.68,0,10.61l1.06,1.06
			c1.46,1.46,3.38,2.2,5.3,2.2c1.92,0,3.84-0.73,5.3-2.2C218.75,329.09,218.75,324.34,215.82,321.41z"/>
	</g>
</g>
<g>
	<g>
		<path class="st0" d="M367.3,211.69l-1.06-1.06c-2.93-2.93-7.68-2.93-10.61,0c-2.93,2.93-2.93,7.68,0,10.61l1.06,1.06
			c1.46,1.46,3.39,2.2,5.3,2.2c1.92,0,3.84-0.73,5.3-2.2C370.23,219.37,370.23,214.62,367.3,211.69z"/>
	</g>
</g>
<g>
	<g>
		<path class="st0" d="M480.11,187.62c-2.46-10.82-5.61-21.45-9.36-31.59c-1.44-3.88-5.75-5.87-9.64-4.43
			c-3.89,1.44-5.87,5.75-4.43,9.64c3.52,9.53,6.49,19.52,8.8,29.71c10.15,44.64,8.26,94.47-5.63,148.09
			c-4.66,18.01-23.11,28.86-41.11,24.2c-18.01-4.66-28.86-23.1-24.2-41.11c21.02-81.17,8.3-147.91-36.78-192.98
			c-30.47-30.47-70.52-46.15-119.05-46.61c-0.02,0-0.05,0-0.07,0c-4.11,0-7.46,3.31-7.5,7.43c-0.04,4.14,3.29,7.53,7.43,7.57
			c44.45,0.42,80.99,14.63,108.58,42.22c41.11,41.11,52.48,102.87,32.86,178.62c-1.81,7-1.99,14.04-0.79,20.73l-10.8,3.55v-16.98
			c0-4.14-3.36-7.5-7.5-7.5s-7.5,3.36-7.5,7.5v152.77c0,10.24-8.33,18.57-18.57,18.57c-10.24,0-18.57-8.33-18.57-18.57v-58.96
			c0-12.07-9.82-21.89-21.89-21.89s-21.89,9.82-21.89,21.89v0.63c0,12.09-9.84,21.93-21.93,21.93c-12.09,0-21.93-9.84-21.93-21.93
			v-56.4c0-4.14-3.36-7.5-7.5-7.5s-7.5,3.36-7.5,7.5v29.83L53.11,446.29c-3.63,1.19-7.4,0.3-10.1-2.4c-2.7-2.7-3.6-6.47-2.4-10.1
			l32.72-99.54c1.29-3.93-0.85-8.17-4.78-9.47c-3.93-1.3-8.17,0.85-9.47,4.78l-32.72,99.54c-2.95,8.98-0.64,18.71,6.05,25.39
			c4.76,4.76,11.07,7.31,17.56,7.31c2.61,0,5.26-0.41,7.83-1.26l155.86-51.24v10.78c0,20.36,16.57,36.93,36.93,36.93
			s36.93-16.57,36.93-36.93v-0.63c0-3.8,3.09-6.89,6.89-6.89c3.8,0,6.89,3.09,6.89,6.89v58.96c0,18.51,15.06,33.57,33.57,33.57
			c18.51,0,33.57-15.06,33.57-33.57v-120l15.67-5.15c6.18,11.72,17.08,20.9,30.88,24.48c4.08,1.06,8.17,1.56,12.21,1.56
			c21.67,0,41.51-14.59,47.19-36.52C488.87,286.82,490.8,234.62,480.11,187.62z"/>
	</g>
</g>
<g>
	<g>
		<path class="st0" d="M323.29,227.7c-4.17,0-8.21,1.05-11.8,3.01c-3.59-1.97-7.63-3.01-11.8-3.01c-13.58,0-24.64,11.05-24.64,24.63
			c0,13.58,11.05,24.64,24.64,24.64c4.17,0,8.21-1.05,11.8-3.01c3.59,1.97,7.63,3.01,11.8,3.01c13.58,0,24.64-11.05,24.64-24.64
			C347.92,238.75,336.87,227.7,323.29,227.7z M323.29,261.97c-2.47,0-4.82-0.95-6.63-2.66c-1.45-1.38-3.31-2.07-5.17-2.07
			c-1.86,0-3.72,0.69-5.17,2.07c-1.8,1.72-4.16,2.66-6.63,2.66c-5.31,0-9.64-4.32-9.64-9.64c0-5.31,4.32-9.63,9.64-9.63
			c2.47,0,4.82,0.95,6.63,2.66c2.9,2.75,7.44,2.75,10.34,0c1.81-1.72,4.16-2.66,6.63-2.66c5.31,0,9.64,4.32,9.64,9.63
			C332.92,257.64,328.6,261.97,323.29,261.97z"/>
	</g>
</g>
<g>
	<g>
		<path class="st0" d="M322.66,310.39c-6.88-6.88-16.03-10.67-25.77-10.67c-9.73,0-18.88,3.79-25.77,10.67
			c-14.21,14.21-14.21,37.32,0,51.53c7.1,7.1,16.44,10.65,25.77,10.65c9.33,0,18.66-3.55,25.77-10.65
			c6.88-6.88,10.67-16.03,10.67-25.77S329.54,317.27,322.66,310.39z M312.05,351.31c-8.36,8.36-21.96,8.36-30.32,0
			c-8.36-8.36-8.36-21.96,0-30.32c4.05-4.05,9.43-6.28,15.16-6.28c5.73,0,11.11,2.23,15.16,6.28c4.05,4.05,6.28,9.43,6.28,15.16
			C318.33,341.88,316.1,347.26,312.05,351.31z"/>
	</g>
</g>
</svg>
