<?xml version="1.0" encoding="utf-8"?>
<!-- Generator: Adobe Illustrator 23.0.0, SVG Export Plug-In . SVG Version: 6.00 Build 0)  -->
<svg version="1.1" id="Layer_1" xmlns="http://www.w3.org/2000/svg" xmlns:xlink="http://www.w3.org/1999/xlink" x="0px" y="0px"
	 viewBox="0 0 512 512" style="enable-background:new 0 0 512 512;" xml:space="preserve">
<style type="text/css">
	.st0{fill:#FF575A;}
</style>
<g>
	<g>
		<path class="st0" d="M187.93,250.95c-39.15,0-70.99,31.85-70.99,70.99c0,23.24,11.41,45.05,30.52,58.33
			c1.51,1.05,3.31,1.61,5.15,1.61h70.64c1.84,0,3.64-0.56,5.15-1.61c19.11-13.28,30.52-35.09,30.52-58.33
			C258.93,282.8,227.08,250.95,187.93,250.95z M220.3,363.83h-64.74c-12.93-10.01-20.57-25.47-20.57-41.89
			c0-29.19,23.75-52.94,52.94-52.94c29.19,0,52.94,23.75,52.94,52.94C240.87,338.36,233.23,353.82,220.3,363.83z"/>
	</g>
</g>
<g>
	<g>
		<path class="st0" d="M97.25,58.53c-0.02,0-0.05,0-0.07,0l-39.42,0.3c-4.99,0.04-8.99,4.11-8.96,9.09
			c0.04,4.96,4.07,8.96,9.02,8.96c0.02,0,0.05,0,0.07,0l39.42-0.3c4.99-0.04,9-4.11,8.96-9.1C106.24,62.53,102.2,58.53,97.25,58.53z
			"/>
	</g>
</g>
<g>
	<g>
		<circle class="st0" cx="26.1" cy="68.1" r="9.03"/>
	</g>
</g>
<g>
	<g>
		<circle class="st0" cx="17.07" cy="19.29" r="9.03"/>
	</g>
</g>
<g>
	<g>
		<circle class="st0" cx="12.97" cy="125.69" r="9.03"/>
	</g>
</g>
<g>
	<g>
		<path class="st0" d="M117.48,25.18l-19.3-9.82c-4.44-2.26-9.88-0.49-12.14,3.95c-2.26,4.44-0.49,9.88,3.95,12.14l19.3,9.82
			c1.31,0.67,2.71,0.98,4.09,0.98c3.29,0,6.46-1.8,8.05-4.94C123.69,32.87,121.92,27.44,117.48,25.18z"/>
	</g>
</g>
<g>
	<g>
		<circle class="st0" cx="65.81" cy="9.03" r="9.03"/>
	</g>
</g>
<g>
	<g>
		<path class="st0" d="M124.75,93.02c-3.14-3.87-8.83-4.46-12.7-1.31l-16.81,13.65c-3.87,3.14-4.46,8.83-1.31,12.7
			c1.78,2.2,4.39,3.33,7.01,3.33c2,0,4.01-0.66,5.69-2.02l16.81-13.65C127.31,102.58,127.89,96.89,124.75,93.02z"/>
	</g>
</g>
<g>
	<g>
		<circle class="st0" cx="76.31" cy="132.37" r="9.03"/>
	</g>
</g>
<g>
	<g>
		<circle class="st0" cx="187.89" cy="59.08" r="9.03"/>
	</g>
</g>
<g>
	<g>
		<path class="st0" d="M500.82,201.53c-17.65-37.04-62.14-52.83-99.19-35.18c-6.6,3.15-12.52,7.16-17.7,11.82l-5-10.49
			c-0.21-0.45-0.15-0.86-0.06-1.12c0.09-0.26,0.3-0.62,0.75-0.83l35.38-16.85c0.73-0.35,1.61-0.04,1.95,0.69
			c2.14,4.5,7.53,6.41,12.03,4.27c4.5-2.15,6.41-7.53,4.27-12.03c-2.24-4.71-6.18-8.26-11.1-10c-4.91-1.74-10.21-1.47-14.92,0.77
			l-11.22,5.35c-17.51-29.48-42.58-53.65-72.98-70.2c-30.24-16.46-63.95-24.36-98.05-23.12V33.57c0-10.12-8.23-18.35-18.35-18.35
			h-37.53c-10.12,0-18.35,8.23-18.35,18.35v87.9h-18.25c-11.61,0-21.06,9.45-21.06,21.06v33.74
			c-56.92,28.25-96.15,86.99-96.15,154.73c0,51.17,22.75,99.48,61.55,132.13c-5.93,5.1-9.69,12.65-9.69,21.07
			c0,15.33,12.47,27.8,27.8,27.8H280.8c15.33,0,27.8-12.47,27.8-27.8c0-8.39-3.74-15.92-9.64-21.02
			c38.83-32.66,61.6-80.99,61.6-132.18c0-95.19-77.44-172.62-172.62-172.62c-20.5,0-40.17,3.6-58.42,10.18v-26.03
			c0-1.66,1.35-3.01,3.01-3.01h27.28h56.17h27.28c1.66,0,3.01,1.35,3.01,3.01c0,4.99,4.04,9.03,9.03,9.03
			c4.98,0,9.03-4.04,9.03-9.03c0-11.61-9.45-21.06-21.06-21.06h-18.25V62.66c31.09-1.25,61.84,5.91,89.42,20.92
			c27.05,14.72,49.43,36.1,65.23,62.14l-7.78,3.71c-9.72,4.63-13.86,16.3-9.23,26.02l8.48,17.79
			c-13.46,20.96-16.14,48.21-4.66,72.31c12.74,26.75,39.48,42.41,67.3,42.41c10.71,0,21.59-2.32,31.89-7.23
			C502.69,283.07,518.47,238.58,500.82,201.53z M187.94,176.43c85.23,0,154.57,69.34,154.57,154.57c0,50.08-24.35,97.09-65.21,126.1
			c-3.25,1.37-5.53,4.58-5.53,8.32c0,4.98,4.04,9.03,9.03,9.03c5.37,0,9.74,4.37,9.74,9.74s-4.37,9.74-9.74,9.74H94.97
			c-5.37,0-9.75-4.37-9.75-9.74s4.37-9.74,9.75-9.74h115.32h26.07c4.99,0,9.03-4.04,9.03-9.03c0-4.98-4.04-9.03-9.03-9.03h-26.07
			H97.56c-40.25-29.06-64.2-75.73-64.2-125.4C33.37,245.77,102.71,176.43,187.94,176.43z M206.94,54.03c0,0,0,0.01,0,0.01v67.43
			h-38.11v-87.9c0-0.16,0.13-0.29,0.29-0.29h37.53c0.16,0,0.29,0.13,0.29,0.29L206.94,54.03L206.94,54.03z M486.76,252.38
			c-5.03,14.19-15.29,25.57-28.88,32.05c-7.8,3.72-16.04,5.48-24.15,5.48c-21.07,0-41.32-11.86-50.97-32.12
			c-6.48-13.59-7.27-28.89-2.24-43.08c1.98-5.58,4.78-10.72,8.26-15.3c0.01-0.01,0.02-0.02,0.03-0.04
			c5.36-7.05,12.36-12.79,20.6-16.71c7.8-3.72,16.04-5.48,24.15-5.48c21.07,0,41.32,11.86,50.97,32.12
			C491,222.89,491.79,238.19,486.76,252.38z"/>
	</g>
</g>
</svg>
