<?xml version="1.0" encoding="utf-8"?>
<!-- Generator: Adobe Illustrator 23.0.0, SVG Export Plug-In . SVG Version: 6.00 Build 0)  -->
<svg version="1.1" id="Capa_1" xmlns="http://www.w3.org/2000/svg" xmlns:xlink="http://www.w3.org/1999/xlink" x="0px" y="0px"
	 viewBox="0 0 512 512" style="enable-background:new 0 0 512 512;" xml:space="preserve">
<style type="text/css">
	.st0{fill:#FF575A;}
</style>
<g>
	<g>
		<path class="st0" d="M506.55,317.93c-9.74-14.31-29.35-18.1-43.71-8.45l-65.34,43.73l-0.19-136.11l22.7,21.26
			c4.83,4.52,11.12,7.01,17.73,7.01c0.01,0,0.03,0,0.04,0c7.13-0.01,14.02-3,18.9-8.21c4.74-5.06,7.22-11.65,7-18.58
			c-0.23-6.93-3.14-13.35-8.19-18.09l-43.04-40.31c-2.95-2.76-7.57-2.61-10.33,0.34c-2.76,2.95-2.61,7.57,0.34,10.33l43.04,40.31
			c2.21,2.07,3.48,4.87,3.58,7.9c0.1,3.02-0.99,5.9-3.05,8.11c-2.16,2.31-5.09,3.58-8.25,3.58c-0.01,0-0.01,0-0.02,0
			c-2.88,0-5.63-1.09-7.74-3.06c0,0,0,0,0,0L259.12,67.62c-2.82-2.64-7.2-2.63-10.01,0.01L78.68,228.19
			c-2.2,2.07-5.08,3.16-8.1,3.08c-3.02-0.09-5.83-1.35-7.9-3.56c-2.07-2.2-3.17-5.08-3.08-8.1c0.09-3.02,1.35-5.83,3.55-7.9
			L246.33,39.14c4.34-4.09,11.15-4.1,15.51-0.02L369,139.51c2.95,2.76,7.57,2.61,10.33-0.34c2.76-2.95,2.61-7.57-0.34-10.33
			L271.83,28.45c-9.97-9.34-25.58-9.32-35.52,0.05l-58.64,55.24l-0.02-9.85c0-3.11-1.22-6.02-3.42-8.22
			c-2.2-2.19-5.11-3.39-8.21-3.39c-0.01,0-0.01,0-0.02,0l-41.95,0.06c-3.11,0-6.02,1.22-8.22,3.42c-2.19,2.2-3.4,5.12-3.39,8.23
			l0.12,71.09l-59.44,55.99c-5.04,4.75-7.94,11.18-8.14,18.11s2.3,13.52,7.05,18.56c4.75,5.04,11.18,7.94,18.11,8.14
			c0.26,0.01,0.53,0.01,0.79,0.01c6.64,0,12.92-2.49,17.77-7.06l22.65-21.34l0.09,64.29c-7.33-1.07-14.74-1.63-22.19-1.63h-12.5
			v-4.38c0-14.71-11.97-26.68-26.68-26.68H26.68C11.97,249.09,0,261.06,0,275.77v114.52c0,4.04,3.27,7.31,7.31,7.31
			s7.31-3.27,7.31-7.31V275.77c0-6.65,5.41-12.06,12.06-12.06h23.39c6.65,0,12.06,5.41,12.06,12.06v11.69v149.8v11.58
			c0,6.65-5.41,12.06-12.06,12.06H26.68c-6.65,0-12.06-5.41-12.06-12.06v-12.79c0-4.04-3.27-7.31-7.31-7.31S0,432.01,0,436.05v12.79
			c0,14.71,11.97,26.68,26.68,26.68h23.39c14.71,0,26.68-11.97,26.68-26.68v-0.99l107.02,40.53c0.2,0.08,0.4,0.14,0.6,0.2
			c4.65,1.31,9.3,1.97,13.9,1.97c2.48,0,4.95-0.19,7.39-0.58l157.28-22.67c0.04-0.01,0.07-0.01,0.11-0.02
			c13.37-2.14,25.99-7.79,36.48-16.35c0.09-0.07,0.18-0.15,0.27-0.23l101.61-91.39C513.24,348.8,515.45,331.02,506.55,317.93z
			 M163.04,76.9l0.03,20.59l-35.91,33.83l-0.09-54.37L163.04,76.9z M254.14,82.98l128.54,120.41l0.22,159.59l-20.69,13.85
			l-21.91-1.23l-0.58-5.82c-2.04-20.5-17.17-36.99-37.18-40.92l-0.13-94.95c-0.01-7.29-5.94-13.21-13.23-13.21
			c-0.01,0-0.01,0-0.02,0l-69.65,0.1c-3.53,0.01-6.85,1.38-9.35,3.89c-2.49,2.5-3.87,5.82-3.86,9.36l0.12,82.78
			c-13.8-3.15-26.97-8.36-39.29-15.57c-1.54-0.9-3.09-1.77-4.65-2.61c-0.61-0.33-1.23-0.64-1.85-0.96c-0.95-0.5-1.9-1-2.86-1.47
			c-0.77-0.38-1.54-0.74-2.31-1.11c-0.82-0.39-1.64-0.78-2.46-1.16c-0.84-0.38-1.69-0.74-2.53-1.11c-0.77-0.33-1.55-0.67-2.32-0.99
			c-0.87-0.36-1.74-0.7-2.62-1.05c-0.78-0.3-1.55-0.61-2.34-0.9c-0.87-0.32-1.74-0.64-2.61-0.94c-0.82-0.29-1.64-0.57-2.46-0.85
			c-0.84-0.28-1.67-0.55-2.52-0.82c-0.9-0.28-1.8-0.55-2.7-0.82c-0.77-0.23-1.55-0.46-2.33-0.67c-1.02-0.28-2.04-0.55-3.06-0.81
			c-0.48-0.12-0.96-0.26-1.44-0.38l-0.11-80.88L254.14,82.98z M287.92,327.03l-61.13-7.04l-5.76-0.66l-0.12-83.91l66.87-0.09
			L287.92,327.03z M491.67,348.41l-101.51,91.3c-8.46,6.86-18.61,11.4-29.36,13.12l-157.21,22.66c-0.03,0.01-0.07,0.01-0.1,0.02
			l-0.11,0.02c-4.76,0.75-9.72,0.44-14.74-0.94L76.75,432.21V294.77h12.5c10.64,0,21.22,1.23,31.51,3.62
			c0.38,0.09,0.76,0.18,1.15,0.27c1.26,0.3,2.53,0.62,3.78,0.96c0.11,0.03,0.22,0.06,0.33,0.09c1.26,0.34,2.51,0.71,3.76,1.09
			c0.22,0.07,0.45,0.14,0.67,0.2c1.33,0.41,2.65,0.84,3.97,1.29c0.14,0.05,0.27,0.1,0.41,0.14c2.74,0.95,5.46,1.98,8.14,3.1
			c0.15,0.06,0.29,0.12,0.44,0.18c1.34,0.56,2.67,1.14,3.99,1.75c0.04,0.02,0.07,0.03,0.11,0.05c1.28,0.59,2.54,1.19,3.8,1.82
			c0.15,0.07,0.3,0.14,0.45,0.22c1.23,0.61,2.45,1.25,3.66,1.9c0.23,0.12,0.46,0.25,0.69,0.37c1.22,0.67,2.44,1.35,3.65,2.05
			c17.39,10.17,36.32,16.76,56.27,19.58c0.06,0.01,0.13,0.02,0.19,0.02l81.88,9.43c0.45,0.07,0.9,0.14,1.35,0.22
			c12.05,2.26,21.57,11.17,24.75,22.77c0.47,1.72,0.8,3.5,0.99,5.32l0.33,3.27l-153.46-13.45c-4.02-0.35-7.57,2.62-7.92,6.64
			c-0.35,4.02,2.62,7.57,6.64,7.92l162.24,14.21c0.04,0,0.08,0,0.11,0.01s0.08,0.01,0.11,0.01l30.6,1.72
			c0.14,0.01,0.27,0.01,0.41,0.01c0.14,0,0.29-0.02,0.43-0.03c0.16-0.01,0.33-0.02,0.49-0.04c0.22-0.03,0.43-0.08,0.64-0.12
			c0.15-0.03,0.31-0.06,0.46-0.1c0.23-0.07,0.46-0.16,0.69-0.25c0.12-0.05,0.25-0.09,0.37-0.14c0.34-0.16,0.67-0.34,0.99-0.55
			l25.97-17.38c0,0,0,0,0,0l76.7-51.33c7.72-5.19,18.25-3.15,23.48,4.54C499.25,333.18,498.06,342.74,491.67,348.41z"/>
	</g>
</g>
</svg>
