<?xml version="1.0" encoding="utf-8"?>
<!-- Generator: Adobe Illustrator 23.0.0, SVG Export Plug-In . SVG Version: 6.00 Build 0)  -->
<svg version="1.1" id="Capa_1" xmlns="http://www.w3.org/2000/svg" xmlns:xlink="http://www.w3.org/1999/xlink" x="0px" y="0px"
	 viewBox="0 0 512 512" style="enable-background:new 0 0 512 512;" xml:space="preserve">
<style type="text/css">
	.st0{fill:#FF575A;}
</style>
<g>
	<g>
		<path class="st0" d="M424.77,236.14c-4.14,0-7.5,3.36-7.5,7.5v140.14c0,62.43-50.79,113.22-113.22,113.22h-34.74
			c-62.43,0-113.22-50.79-113.22-113.22l0-34.4c0-4.14-3.36-7.5-7.5-7.5c-4.14,0-7.5,3.36-7.5,7.5l0,34.4
			c0,70.7,57.52,128.22,128.22,128.22h34.74c70.7,0,128.22-57.52,128.22-128.22V243.64C432.27,239.5,428.91,236.14,424.77,236.14z"
			/>
	</g>
</g>
<g>
	<g>
		<path class="st0" d="M398.92,236.91c-4.14,0-7.5,3.36-7.5,7.5v139.37c0,48.18-39.2,87.37-87.37,87.37h-34.74
			c-48.18,0-87.37-39.2-87.37-87.39l-0.04-94.74c31.04-6.2,57.77-26.59,71.92-55.06c3.19-6.42,2.84-13.9-0.95-20.02
			c-1.12-1.81-2.49-3.4-4.03-4.75c0.31-1.27,0.6-2.54,0.85-3.83l33.06-129.66c0.04-0.15,0.07-0.29,0.1-0.44
			c4.01-20.92-9.05-41.25-29.75-46.29l-10.3-2.51c-1.37-5.63-5.05-11.11-10.81-15.94c-6.67-5.6-15.14-9.46-22.66-10.33
			c-16.09-1.87-30.71,9.7-32.58,25.79c-1.87,16.09,9.7,30.71,25.79,32.58c1.25,0.15,2.53,0.22,3.85,0.22
			c6.65,0,14.09-1.81,20.57-5.07c6.38-3.22,11.07-7.45,13.77-12.3l8.81,2.14c12.85,3.13,20.98,15.7,18.61,28.68l-33.05,129.64
			c-0.04,0.15-0.07,0.29-0.1,0.44c-0.12,0.61-0.25,1.21-0.38,1.81c-7.59,0.22-14.56,4.6-17.88,11.3
			c-10.26,20.73-31.82,34.12-54.91,34.12c-23.27,0-44.24-12.93-54.73-33.75c-3.47-6.9-10.48-11.41-18.06-11.67
			c-0.13-0.6-0.26-1.21-0.38-1.82c-0.03-0.15-0.06-0.29-0.1-0.44L55.51,72.24c-2.38-12.98,5.76-25.55,18.6-28.68l8.78-2.14
			c6.22,11.24,22.2,17.36,34.45,17.36c1.3,0,2.57-0.07,3.77-0.21c16.09-1.87,27.66-16.48,25.79-32.58
			C145.04,9.9,130.44-1.67,114.33,0.2c-7.52,0.87-15.99,4.74-22.66,10.33c-5.75,4.83-9.43,10.32-10.81,15.94l-10.3,2.51
			C49.87,34.02,36.8,54.35,40.81,75.27c0.03,0.15,0.06,0.29,0.1,0.44l33.06,129.66c0.25,1.29,0.54,2.56,0.85,3.83
			c-1.6,1.39-3,3.04-4.13,4.92c-3.69,6.08-4.01,13.5-0.85,19.85c14.05,28.26,40.5,48.57,71.26,54.92l0,25.74
			c0,4.14,3.36,7.5,7.5,7.5c0,0,0,0,0,0c4.14,0,7.5-3.36,7.5-7.5l0-29.51c0-5.13-3.68-9.47-8.74-10.32
			c-27.64-4.63-51.6-22.39-64.09-47.52c-0.87-1.74-0.78-3.71,0.24-5.39c1.04-1.71,2.84-2.75,4.75-2.79l0.16,0
			c2.12,0,4.25,1.38,5.28,3.45c13.05,25.9,39.16,42,68.12,42c28.75,0,55.58-16.67,68.36-42.46c0.88-1.78,2.9-2.98,5.02-2.98
			c2.04,0,3.83,1,4.91,2.74c1.05,1.7,1.15,3.68,0.27,5.44c-12.46,25.05-36.32,42.79-63.86,47.47l-0.23,0.02
			c-5.36,0.55-9.4,5.02-9.4,10.42l0.04,98.56c0,56.46,45.93,102.39,102.37,102.39h34.74c56.45,0,102.37-45.92,102.37-102.37V244.41
			C406.42,240.27,403.07,236.91,398.92,236.91z M228.36,31.99c-0.32,2.81-3.37,5.92-8.15,8.32c-5.1,2.57-11.36,3.89-15.94,3.35
			c-7.88-0.92-13.54-8.07-12.63-15.94c0.85-7.32,7.08-12.72,14.27-12.72c0.55,0,1.11,0.03,1.67,0.1c4.59,0.53,10.37,3.25,14.75,6.92
			C226.44,25.46,228.69,29.19,228.36,31.99z M116.07,15.1c7.87-0.91,15.03,4.75,15.95,12.62c0.91,7.88-4.75,15.03-12.63,15.95
			c-9.65,1.12-23.38-5.54-24.1-11.68C94.57,25.85,106.42,16.22,116.07,15.1z"/>
	</g>
</g>
<g>
	<g>
		<path class="st0" d="M410.29,96.87c-33.98,0-61.63,27.64-61.63,61.63s27.64,61.63,61.63,61.63s61.63-27.65,61.63-61.63
			S444.27,96.87,410.29,96.87z M410.29,205.12c-25.71,0-46.63-20.92-46.63-46.63s20.92-46.63,46.63-46.63s46.63,20.92,46.63,46.63
			S435.99,205.12,410.29,205.12z"/>
	</g>
</g>
<g>
	<g>
		<path class="st0" d="M410.29,129.9c-15.76,0-28.59,12.82-28.59,28.59s12.82,28.59,28.59,28.59s28.59-12.82,28.59-28.59
			S426.05,129.9,410.29,129.9z M410.29,172.08c-7.49,0-13.59-6.1-13.59-13.59s6.1-13.59,13.59-13.59s13.59,6.1,13.59,13.59
			C423.87,165.98,417.78,172.08,410.29,172.08z"/>
	</g>
</g>
</svg>
