<?xml version="1.0" encoding="utf-8"?>
<!-- Generator: Adobe Illustrator 23.0.0, SVG Export Plug-In . SVG Version: 6.00 Build 0)  -->
<svg version="1.1" id="Livello_1" xmlns="http://www.w3.org/2000/svg" xmlns:xlink="http://www.w3.org/1999/xlink" x="0px" y="0px"
	 viewBox="0 0 595.28 841.89" style="enable-background:new 0 0 595.28 841.89;" xml:space="preserve">
<style type="text/css">
	.st0{fill:#EB585D;}
</style>
<g>
	<path class="st0" d="M546,663c-160,0-320,0-480,0c-7.73-2.94-13.06-8.27-16-16c0-4.33,0-8.67,0-13c2.9-7.08,7.4-12.62,14.81-15.32
		c2.28-0.83,2.87-2.54,2.86-4.72c-0.02-4.17-0.05-8.33,0.05-12.5c0.15-6.58,3.25-10.56,8.17-10.64c4.93-0.08,8.21,3.92,8.39,10.41
		c0.1,3.5,0.22,7.01-0.01,10.49c-0.29,4.25,1.21,5.91,5.68,5.88c30.49-0.15,60.99-0.16,91.48,0.01c4.91,0.03,6.26-1.75,6.24-6.44
		c-0.12-33.82-0.08-67.65,0.1-101.47c0.02-4.68-1.27-6.46-6.22-6.43c-30.32,0.19-60.65,0.18-90.98,0c-4.81-0.03-6.4,1.48-6.34,6.31
		c0.22,17.66,0.08,35.32,0.09,52.98c0,2.5,0,4.99-1.04,7.36c-1.45,3.27-4.07,4.93-7.48,4.85c-3.19-0.07-5.67-1.72-7.03-4.78
		c-1.2-2.68-1.15-5.51-1.15-8.35c0.03-26.83,0.06-53.65,0.08-80.48c0.01-8.33-0.14-16.66,0.02-24.99
		c0.15-7.83,2.89-10.49,10.61-10.58c7.5-0.09,15-0.09,22.49,0.03c3.31,0.05,4.9-1.11,4.9-4.62c-0.08-31.82-0.1-63.65-0.09-95.48
		c0-2.73-0.98-4.64-3.12-6.4c-9.87-8.12-14.76-18.74-14.77-31.46c-0.06-48.49,0-96.98-0.07-145.46c-0.01-4.41,1-8.22,4.35-11.23
		c19.33,0,38.67,0,58,0c2.87,2.99,5.27,6.11,3.27,10.63c-1.99,4.49-5.85,4.81-10.04,4.78c-10.49-0.08-20.99-0.03-31.48-0.02
		c-7.25,0.01-7.41,0.15-7.43,7.15c-0.02,10.83-0.02,21.66,0,32.48c0.01,6.51,0.16,6.66,6.81,6.66c27.65,0.01,55.3,0.01,82.95,0.01
		c45.81-0.01,91.62-0.02,137.42-0.03c56.8-0.02,113.6-0.08,170.41,0c4.43,0.01,5.79-1.67,5.73-5.91
		c-0.16-11.32,0.03-22.65,0.03-33.98c0-6.2-0.19-6.37-6.58-6.37c-24.49-0.01-48.97-0.01-73.46,0
		c-82.12,0.02-164.24,0.04-246.37,0.08c-4.3,0-8.43-0.1-10.53-4.84c-2-4.51,0.4-7.63,3.27-10.63c115.33,0,230.67,0,346,0
		c2.8,2.64,4.32,5.79,4.31,9.73c-0.04,49.66,0.1,99.32-0.14,148.98c-0.05,11.33-4.71,21.15-13.68,28.33
		c-3.28,2.63-4.25,5.41-4.24,9.38c0.13,41.16,0.14,82.32,0.15,123.48c0,10.16,0.05,20.33-0.19,30.49c-0.13,5.7-3.24,8.94-7.95,9.06
		c-4.95,0.13-8.16-3.17-8.59-9.01c-0.18-2.49-0.16-5-0.08-7.5c0.09-3.18-1.41-4.58-4.53-4.51c-2.16,0.05-4.33-0.04-6.5-0.04
		c-59.49,0-118.98,0-178.47,0c-29.83,0-59.66,0.09-89.49-0.09c-4.77-0.03-6.58,1.4-6.37,6.28c0.33,7.82,0.18,15.66,0.1,23.49
		c-0.03,3.24,0.67,4.83,4.33,3.36c29.36-11.82,60.31-14.66,91.51-15.72c14.15-0.48,28.3,0.66,42.37,2.08
		c19.73,1.99,39.3,5.01,57.93,12.31c9.05,3.54,17.76,7.69,24.87,14.52c11.77,11.33,11.79,25.49-0.03,36.78
		c-7.1,6.79-15.69,11.23-24.8,14.64c-22.69,8.48-46.46,11.47-70.39,13.26c-20.28,1.52-40.57,1.43-60.83-0.92
		c-20.55-2.39-40.9-5.64-60.18-13.54c-3.64-1.49-4.84-0.74-4.78,3.11c0.12,7.16,0.05,14.33,0.01,21.5
		c-0.04,7.08,0.02,7.17,7.29,7.18c90.32,0,180.64,0,270.96,0c7.09,0,7.11-0.02,7.11-7.36c0.01-23.5,0-46.99,0.01-70.49
		c0-2.5-0.07-4.99,0.98-7.37c1.43-3.25,3.83-4.89,7.41-4.86c3.6,0.03,5.93,1.75,7.31,5.01c1.01,2.39,0.92,4.89,0.92,7.38
		c0.01,23.83,0.11,47.66-0.08,71.49c-0.04,4.85,1.56,6.46,6.36,6.29c9.15-0.32,18.33-0.17,27.49-0.13
		c9.64,0.05,18.23,6.2,21.17,15.37C564.49,643.03,562.12,656.46,546,663z M459.68,404.4c-0.04,0-0.07,0-0.11,0c0-21.33,0-42.66,0-64
		c0-2.41-0.18-4.9-2.51-6.14c-2.7-1.45-3.77,1.33-5.22,2.68c-14.76,13.74-37.43,13.66-52.01-0.51c-2.98-2.89-4.67-2.91-7.66-0.01
		c-14.88,14.45-37.41,14.53-52.2,0.12c-3.23-3.14-4.94-2.89-8.03,0.1c-14.76,14.3-38.12,14-52.65-0.63
		c-2.82-2.84-4.37-2.21-6.87,0.2c-15.16,14.58-37.67,14.7-52.64,0.14c-3.06-2.98-4.7-2.6-7.67,0.11
		c-11.87,10.82-25.45,13.98-40.64,7.72c-4.65-1.92-8.76-4.77-12.35-8.34c-1.03-1.02-1.99-2.55-3.75-1.84
		c-1.84,0.74-2.76,2.33-2.95,4.3c-0.08,0.83-0.08,1.66-0.08,2.5c0,33,0.07,66-0.09,98.99c-0.02,4.78,1.85,5.97,6.25,5.88
		c11.66-0.22,23.33-0.1,35-0.06c7.96,0.02,10.68,2.77,10.81,10.87c0.07,4.17,0.02,8.33,0.03,12.5c0.01,2.29,0.18,4.59,3.27,4.51
		c3.11-0.08,3.04-2.49,3.07-4.71c0.02-1.17,0.01-2.33,0.01-3.5c-0.03-14.83-0.07-29.66-0.08-44.5c0-8.39,2.8-11.25,10.94-11.24
		c17.83,0.02,35.66,0.04,53.5,0.07c9.88,0.01,12.34,2.45,12.35,12.42c0.01,15.67-0.04,31.33-0.08,47c-0.01,2.66,0.61,4.63,3.84,4.55
		c2.97-0.07,3.52-1.95,3.51-4.37c-0.01-4.67-0.02-9.33,0.02-14c0.08-8.86,2.38-11.36,11.1-11.54c3.39-0.07,4.62-0.86,4.23-4.68
		c-1.41-13.77,9.01-25.27,22.73-25.35c20.16-0.11,40.33-0.14,60.5-0.07c13.42,0.05,24.13,11.63,22.76,24.91
		c-0.44,4.22,0.75,5.22,4.68,5.21c7.78-0.03,10.44,2.72,10.67,10.5c0.14,5,0.12,10,0.04,15c-0.05,3.2,1.37,4.5,4.53,4.45
		c5.83-0.1,11.68-0.28,17.49,0.06c4.83,0.28,6.4-1.47,6.35-6.3C459.57,446.4,459.68,425.4,459.68,404.4z M305.33,584.66
		c26.9,0,53.49-2.39,79.41-9.98c10.24-3,20.36-6.52,28.6-13.68c5.73-4.98,5.64-9.17-0.02-14.17c-4.41-3.9-9.66-6.48-15.06-8.71
		c-20.22-8.37-41.58-11.71-63.14-13.64c-27.27-2.44-54.51-1.41-81.57,2.88c-15.48,2.46-30.7,5.96-44.84,13.06
		c-2.07,1.04-4.01,2.03-4.4,4.89c-2.46,18.08,0.3,22.47,17.86,27.84c0.48,0.15,0.96,0.26,1.44,0.41
		C250.22,581.95,277.6,584.61,305.33,584.66z M306.54,633.46c-75.64,0-151.27,0-226.91,0c-2.83,0-5.64-0.08-8.42,0.76
		c-3.1,0.94-4.85,2.8-4.89,6.09c-0.05,3.24,1.54,5.28,4.59,6.36c3.07,1.08,6.24,0.94,9.39,0.94c58.14-0.01,116.29-0.04,174.43-0.04
		c93.46,0,186.92,0.03,280.39,0.05c2.18,0,4.31-0.13,6.38-0.93c3-1.16,4.57-3.33,4.43-6.51c-0.12-2.96-1.76-4.9-4.58-5.9
		c-2.75-0.98-5.58-0.81-8.41-0.81C457.48,633.46,382.01,633.46,306.54,633.46z M135.99,461.39c-15.32,0-30.64,0.12-45.96-0.07
		c-4.39-0.05-5.97,1.52-5.77,5.83c0.25,5.32,0.13,10.66,0.05,15.98c-0.05,3.16,1.31,4.5,4.49,4.5c31.48-0.04,62.95-0.04,94.43,0
		c3.2,0,4.52-1.39,4.47-4.53c-0.08-5.33-0.21-10.67,0.05-15.98c0.21-4.34-1.43-5.86-5.79-5.81
		C166.63,461.5,151.31,461.39,135.99,461.39z M270.67,449.62c0-6.49-0.05-12.98,0.02-19.48c0.03-2.96-0.85-4.78-4.22-4.76
		c-11.65,0.06-23.31,0.05-34.96,0.01c-2.95-0.01-4.21,1.36-4.2,4.26c0.04,13.32,0.03,26.63,0.02,39.95c0,2.67,1.21,3.96,3.94,3.96
		c11.65-0.01,23.31-0.01,34.96,0.07c3.21,0.02,4.49-1.41,4.46-4.54C270.62,462.6,270.67,456.11,270.67,449.62z M126.22,229.33
		c-5.67,0-11.33,0.08-17-0.03c-3.28-0.06-4.95,1.08-4.93,4.61c0.09,11.33,0.09,22.67,0,34c-0.03,3.38,1.32,4.83,4.74,4.8
		c11.33-0.09,22.67-0.07,34-0.01c3.06,0.02,4.67-1.08,4.65-4.35c-0.06-11.5-0.06-23,0.01-34.5c0.02-3.14-1.29-4.58-4.48-4.53
		C137.55,229.39,131.89,229.33,126.22,229.33z M164.33,250.49c0,5.65,0.08,11.31-0.03,16.96c-0.07,3.5,1.23,5.19,4.95,5.16
		c11.14-0.08,22.28-0.04,33.42,0.1c3.62,0.05,5.09-1.34,5.04-5c-0.15-11.14-0.18-22.28-0.1-33.42c0.03-3.68-1.58-5.02-5.11-5
		c-11.14,0.09-22.28,0.08-33.42-0.01c-3.38-0.03-4.85,1.32-4.78,4.74C164.41,239.52,164.33,245.01,164.33,250.49z M224.33,250.57
		c0,5.83,0.06,11.65-0.02,17.48c-0.04,3.06,1.1,4.66,4.36,4.64c11.48-0.09,22.97-0.12,34.45-0.1c3.18,0.01,4.48-1.42,4.47-4.55
		c-0.03-11.48,0.02-22.97,0.08-34.45c0.02-2.9-1.26-4.28-4.2-4.27c-11.65,0.04-23.3,0.04-34.95,0c-2.94-0.01-4.23,1.37-4.2,4.27
		C224.37,239.26,224.34,244.92,224.33,250.57z M327.68,251.31c0-5.67-0.11-11.34,0.04-17c0.1-3.65-1.41-5.07-5.04-5.03
		c-11.16,0.12-22.33,0.1-33.49,0.01c-3.32-0.03-4.91,1.16-4.88,4.66c0.09,11.33,0.09,22.66,0,33.99c-0.03,3.41,1.38,4.79,4.78,4.76
		c11.33-0.09,22.66-0.09,34,0c3.5,0.03,4.71-1.59,4.64-4.89C327.59,262.31,327.67,256.81,327.68,251.31z M366,229.33
		c-5.65,0-11.31,0.08-16.96-0.03c-3.41-0.07-4.77,1.39-4.75,4.77c0.09,11.14,0.09,22.28,0.01,33.42c-0.03,3.53,1.3,5.15,4.99,5.12
		c11.14-0.08,22.28-0.05,33.42,0.1c3.65,0.05,5.05-1.41,5.01-5.04c-0.15-11.14-0.18-22.28-0.1-33.42c0.03-3.71-1.64-5.03-5.15-4.96
		C376.98,229.41,371.49,229.33,366,229.33z M404.32,250.66c0,5.66,0.11,11.32-0.04,16.98c-0.09,3.59,1.28,5.13,4.97,5.08
		c11.15-0.15,22.3-0.16,33.45-0.11c3.29,0.01,4.92-1.15,4.9-4.65c-0.05-11.32-0.02-22.64,0.1-33.95c0.04-3.44-1.45-4.74-4.81-4.71
		c-11.32,0.09-22.64,0.09-33.95,0c-3.49-0.03-4.71,1.58-4.64,4.88C404.41,239.67,404.33,245.16,404.32,250.66z M507.68,251.46
		c0-5.5-0.15-11,0.05-16.5c0.15-3.97-1.15-5.78-5.41-5.71c-11,0.19-22,0.14-32.99,0.02c-3.63-0.04-5.09,1.35-5.05,5.01
		c0.12,11.16,0.1,22.33,0.01,33.5c-0.03,3.29,1.1,4.94,4.62,4.91c11.33-0.09,22.67-0.09,34,0c3.38,0.03,4.87-1.32,4.79-4.74
		C507.59,262.47,507.67,256.96,507.68,251.46z M476.32,409.51c0,19.47-0.01,38.93,0.02,58.4c0,1.93-0.47,4.1,1.79,5.31
		c5.76,3.08,11.56-0.38,11.56-6.93c0.01-36.94,0-73.88,0-110.81c0-7.51-0.01-7.51-7.26-8.41c-5.94-0.74-6.1-0.63-6.1,5.54
		C476.3,371.57,476.32,390.54,476.32,409.51z M125.81,289.33c-5.65,0-11.31,0.06-16.96-0.02c-3.12-0.05-4.59,1.26-4.54,4.45
		c0.1,5.82-0.22,11.66,0.14,17.45c0.68,10.84,10.79,19.54,22.19,19.43c10.86-0.1,20.53-9.26,20.95-20.11
		c0.21-5.48-0.08-10.97,0.01-16.46c0.06-3.42-1.5-4.8-4.83-4.76C137.12,289.4,131.47,289.34,125.81,289.33z M186.26,289.32
		c-5.66,0-11.33,0.11-16.98-0.04c-3.67-0.1-5.1,1.46-4.99,5.07c0.16,5.32-0.09,10.66,0.11,15.98c0.43,11.36,10.2,20.38,21.81,20.32
		c11.03-0.06,21-9.42,21.41-20.31c0.2-5.32-0.05-10.66,0.11-15.98c0.11-3.6-1.29-5.18-4.97-5.07
		C197.25,289.44,191.75,289.32,186.26,289.32z M246.34,289.33c-5.83,0-11.66,0.06-17.49-0.02c-3.14-0.04-4.6,1.27-4.54,4.46
		c0.12,5.66-0.15,11.34,0.23,16.98c0.79,11.84,10.58,20.3,22.65,19.89c11.1-0.38,20.2-9.77,20.45-21.21
		c0.1-4.83-0.17-9.67,0.1-14.49c0.25-4.48-1.7-5.88-5.92-5.68C256.67,289.5,251.5,289.32,246.34,289.33z M306.39,289.34
		c0-0.01,0-0.01,0-0.02c-5.49,0-10.98,0.15-16.46-0.05c-3.97-0.15-5.87,1.16-5.67,5.41c0.24,4.98-0.03,9.98,0.1,14.96
		c0.29,11.85,10.1,21.09,22.2,21.01c11.3-0.07,20.85-9.54,21.07-21.03c0.1-5.15-0.12-10.31-0.03-15.46
		c0.06-3.36-1.36-4.89-4.75-4.84C317.37,289.4,311.88,289.34,306.39,289.34z M366.08,289.33c-5.66,0-11.32,0.08-16.98-0.03
		c-3.37-0.07-4.89,1.3-4.8,4.73c0.12,4.83-0.02,9.66,0.04,14.49c0.16,12.63,9.39,22.1,21.54,22.14
		c11.97,0.04,21.62-9.67,21.79-21.98c0.06-4.49-0.22-9.01,0.09-13.48c0.32-4.73-1.73-6.17-6.18-5.93
		C376.42,289.53,371.24,289.32,366.08,289.33z M426.33,289.33c-5.83,0-11.66,0.06-17.49-0.02c-3.14-0.04-4.6,1.28-4.53,4.47
		c0.12,5.66-0.15,11.34,0.23,16.98c0.79,11.84,10.59,20.29,22.66,19.88c11.1-0.38,20.2-9.77,20.45-21.21
		c0.1-4.83-0.17-9.67,0.1-14.49c0.25-4.48-1.71-5.88-5.92-5.68C436.67,289.5,431.49,289.32,426.33,289.33z M485.88,289.34
		c0-0.01,0-0.01,0-0.02c-5.32,0-10.65,0.16-15.96-0.05c-3.99-0.16-5.86,1.19-5.65,5.42c0.24,4.98-0.03,9.98,0.1,14.96
		c0.3,11.85,10.12,21.08,22.21,20.99c11.3-0.08,20.84-9.55,21.06-21.04c0.1-5.15-0.12-10.31-0.03-15.46
		c0.06-3.37-1.39-4.87-4.76-4.82C497.19,289.4,491.54,289.34,485.88,289.34z M363.03,473.61c15.31,0,30.62,0.04,45.93-0.02
		c5.43-0.02,5.6-0.61,5.79-7.87c0.11-4.18-0.7-6.45-5.68-6.42c-30.62,0.17-61.24,0.21-91.85-0.02c-5.76-0.04-6.01,2.87-5.97,7.17
		c0.04,4.18-0.04,7.4,5.86,7.28C332.4,473.39,347.72,473.61,363.03,473.61z M135.68,395.81c0-14.63,0.02-29.27-0.02-43.9
		c0-1.75,0.66-4.26-1.44-4.88c-3.36-0.99-6.96-0.1-10.2,0.88c-2.53,0.76-1.68,3.69-1.68,5.75c-0.04,28.44-0.04,56.88-0.02,85.31
		c0,6.48,0.22,6.65,6.81,6.64c6.43-0.01,6.54-0.11,6.55-6.89C135.7,424.42,135.69,410.12,135.68,395.81z M362.91,443.61
		c8.5,0,16.99,0.03,25.49-0.01c7.44-0.03,11.21-2.47,11.19-7.14c-0.02-4.66-3.79-7.06-11.25-7.07c-16.83-0.02-33.65-0.03-50.48,0.02
		c-1.97,0.01-3.99,0.24-5.91,0.67c-3.24,0.73-5.4,2.69-5.49,6.19c-0.1,3.75,2.11,5.84,5.55,6.65c1.76,0.41,3.61,0.63,5.41,0.65
		C345.91,443.65,354.41,443.61,362.91,443.61z"/>
</g>
</svg>
